<?xml version="1.0" encoding="utf-8"?>
<!-- Generator: Adobe Illustrator 19.2.1, SVG Export Plug-In . SVG Version: 6.00 Build 0)  -->
<svg version="1.1" id="Layer_1" xmlns="http://www.w3.org/2000/svg" xmlns:xlink="http://www.w3.org/1999/xlink" x="0px" y="0px"
	 viewBox="0 0 380 110" style="enable-background:new 0 0 380 110;" xml:space="preserve">
<style type="text/css">
	.st0{fill-rule:evenodd;clip-rule:evenodd;fill:#223C75;}
	.st1{fill:#223C75;}
	.st2{fill:#B86D2A;stroke:#C2912E;stroke-width:0.3199;stroke-miterlimit:10;}
	.st3{fill:#404041;}
	.st4{fill-rule:evenodd;clip-rule:evenodd;fill:#404041;}
	.st5{fill:url(#SVGID_1_);}
	.st6{fill:#B86D2A;stroke:#C2912E;stroke-width:0.1206;stroke-miterlimit:10;}
</style>
<g>
	<g>
		<g>
			<path class="st0" d="M145.6,69.6c0.9-0.2,1.8-0.5,2.6-0.8c0.8-0.4,1.5-0.8,2.2-1.3c0.7-0.5,1.3-1.1,1.9-1.7l-3.4-3.2
				c-1,0.8-1.9,1.5-2.9,2c-1,0.5-2.1,0.7-3.5,0.7c-1,0-2-0.2-2.9-0.6s-1.6-0.9-2.2-1.6c-0.6-0.7-1.1-1.4-1.4-2.3
				c-0.3-0.9-0.5-1.8-0.5-2.8V58c0-1,0.2-1.9,0.5-2.8c0.3-0.9,0.8-1.6,1.5-2.3c0.6-0.7,1.4-1.2,2.2-1.5c0.9-0.4,1.8-0.6,2.8-0.6
				c1.2,0,2.3,0.2,3.3,0.7c1,0.5,2,1.1,2.9,1.9l3.4-3.7c-0.6-0.5-1.2-1-1.8-1.4c-0.6-0.4-1.4-0.8-2.1-1.1c-0.8-0.3-1.6-0.5-2.6-0.7
				c-0.9-0.2-2-0.3-3.1-0.3c-1.9,0-3.6,0.3-5.1,0.9c-1.6,0.6-2.9,1.5-4,2.5c-1.1,1.1-2,2.3-2.6,3.8c-0.6,1.4-0.9,3-0.9,4.6v0.1
				c0,1.6,0.3,3.2,0.9,4.6c0.6,1.4,1.5,2.7,2.6,3.7c1.1,1.1,2.4,1.9,4,2.5s3.2,0.9,5,0.9C143.6,69.9,144.7,69.8,145.6,69.6z"/>
		</g>
		<path class="st0" d="M172.1,68.9c1.6-0.6,3-1.5,4.1-2.5c1.1-1.1,2-2.3,2.7-3.8c0.6-1.4,1-3,1-4.6V58c0-1.6-0.3-3.2-1-4.6
			c-0.6-1.4-1.5-2.7-2.7-3.7s-2.5-1.9-4.1-2.5c-1.6-0.6-3.3-0.9-5.2-0.9c-1.9,0-3.6,0.3-5.2,0.9c-1.6,0.6-3,1.5-4.1,2.5
			c-1.1,1.1-2,2.3-2.7,3.8c-0.6,1.4-1,3-1,4.6v0.1c0,1.6,0.3,3.2,1,4.6c0.6,1.4,1.5,2.7,2.7,3.7c1.1,1.1,2.5,1.9,4.1,2.5
			c1.6,0.6,3.3,0.9,5.2,0.9C168.7,69.9,170.5,69.5,172.1,68.9z M164,64.6c-0.9-0.4-1.7-0.9-2.3-1.6c-0.7-0.7-1.2-1.4-1.5-2.3
			c-0.4-0.9-0.5-1.8-0.5-2.8V58c0-1,0.2-1.9,0.5-2.8c0.4-0.9,0.9-1.6,1.5-2.3c0.6-0.7,1.4-1.2,2.3-1.5c0.9-0.4,1.9-0.6,3-0.6
			c1.1,0,2.1,0.2,3,0.6c0.9,0.4,1.7,0.9,2.3,1.6c0.7,0.7,1.2,1.4,1.5,2.3c0.4,0.9,0.5,1.8,0.5,2.8v0.1c0,1-0.2,1.9-0.5,2.8
			c-0.4,0.9-0.9,1.6-1.5,2.3c-0.6,0.7-1.4,1.2-2.3,1.5c-0.9,0.4-1.9,0.6-3,0.6C165.8,65.2,164.9,65,164,64.6z"/>
		<g>
			<polygon class="st0" points="183,69.5 188.2,69.5 188.2,54.6 195,64.3 195.2,64.3 202,54.5 202,69.5 207.3,69.5 207.3,46.6 
				201.5,46.6 195.1,56.3 188.7,46.6 183,46.6 			"/>
		</g>
		<g>
			<polygon class="st0" points="211.5,69.5 216.8,69.5 216.8,54.6 223.5,64.3 223.7,64.3 230.5,54.5 230.5,69.5 235.8,69.5 
				235.8,46.6 230,46.6 223.7,56.3 217.3,46.6 211.5,46.6 			"/>
		</g>
		<g>
			<path class="st0" d="M254.6,69.2c1.3-0.4,2.4-1.1,3.4-1.9c0.9-0.9,1.6-1.9,2.1-3.2c0.5-1.3,0.7-2.8,0.7-4.5V46.6h-5.4v13.1
				c0,1.8-0.5,3.2-1.4,4.1c-0.9,0.9-2.2,1.4-3.9,1.4c-1.6,0-2.9-0.5-3.9-1.4c-0.9-0.9-1.4-2.4-1.4-4.2V46.6h-5.4v13.1
				c0,3.4,0.9,5.9,2.8,7.6c1.9,1.7,4.4,2.5,7.7,2.5C251.8,69.8,253.3,69.6,254.6,69.2z"/>
		</g>
		<g>
			<polygon class="st0" points="264.7,69.5 269.9,69.5 269.9,54.9 281.7,69.5 286.3,69.5 286.3,46.6 281,46.6 281,60.7 269.6,46.6 
				264.7,46.6 			"/>
		</g>
		<g>
			<rect x="290.7" y="46.6" class="st0" width="5.4" height="22.9"/>
		</g>
		<g>
			<polygon class="st0" points="306.2,69.5 311.5,69.5 311.5,51.2 319,51.2 319,46.6 298.8,46.6 298.8,51.2 306.2,51.2 			"/>
		</g>
		<g>
			<polygon class="st0" points="328.3,69.5 333.6,69.5 333.6,60.4 343,46.6 336.9,46.6 331,55.8 325.2,46.6 318.9,46.6 328.3,60.5 
							"/>
		</g>
	</g>
	<g>
		<path class="st1" d="M150,32.4h2.3l3.1,8l3.1-8h2.3l-4.7,11.4h-1.5L150,32.4z"/>
		<path class="st1" d="M162.7,32.4h5.4v2h-3.2v2.7h3.2v2h-3.2v2.7h3.2v2h-5.4V32.4z"/>
		<path class="st1" d="M170.1,32.4h5.9v2h-1.9v9.4H172v-9.4h-1.9V32.4z"/>
		<path class="st1" d="M184.6,35.5h-2.1c0-0.2-0.1-0.5-0.3-0.7c-0.1-0.2-0.3-0.3-0.6-0.4c-0.1,0-0.2,0-0.3,0c-0.1,0-0.2,0-0.4,0.1
			c-0.1,0-0.2,0.1-0.4,0.3c-0.2,0.2-0.2,0.4-0.2,0.7c0,0.1,0,0.2,0.1,0.4c0,0.2,0.2,0.4,0.4,0.5c0.2,0.2,0.5,0.3,0.8,0.4l0.3,0.1
			c0.9,0.3,1.6,0.7,2,1.1c0.4,0.5,0.7,0.9,0.7,1.4c0.1,0.5,0.1,0.8,0.1,0.9c0,0.6-0.1,1.1-0.3,1.6c-0.2,0.5-0.5,0.9-0.9,1.2
			c-0.4,0.3-0.8,0.5-1.1,0.6c-0.4,0.1-0.7,0.2-1.1,0.2c-0.5,0-1-0.1-1.6-0.4c-0.5-0.3-1-0.7-1.3-1.3c-0.3-0.6-0.5-1.2-0.5-1.9h2
			c0,0.4,0.1,0.6,0.2,0.9c0.1,0.2,0.3,0.4,0.5,0.5s0.4,0.1,0.6,0.1c0.3,0,0.6-0.1,0.9-0.3c0.3-0.2,0.4-0.6,0.4-1.1
			c0-0.1,0-0.2-0.1-0.4c0-0.2-0.2-0.4-0.4-0.6c-0.2-0.2-0.6-0.4-1.1-0.6l-0.3-0.1c-0.9-0.4-1.5-0.8-1.9-1.2s-0.6-1-0.6-1.7v-0.2
			c0-0.5,0.1-1,0.3-1.5c0.2-0.5,0.5-0.9,0.8-1.1c0.3-0.2,0.7-0.4,1-0.5c0.3-0.1,0.6-0.1,0.9-0.1c0.6,0,1.1,0.1,1.6,0.4
			c0.5,0.3,0.9,0.7,1.2,1.2C184.4,34.4,184.6,35,184.6,35.5z"/>
		<polygon class="st1" points="187.2,35.6 186.2,35.6 186.2,32.3 188.2,32.3 		"/>
	</g>
	<g>
		<g>
			<path class="st2" d="M224.7,84.8c-1.6,0-3-0.6-4.2-1.7c-1.1-1.2-1.7-2.6-1.7-4.2c0-1.6,0.6-3,1.7-4.2c1.2-1.2,2.5-1.7,4.2-1.7
				c1.2,0,2.3,0.3,3.2,1c1,0.6,1.7,1.5,2.2,2.5h-2.5c-0.3-0.4-0.8-0.7-1.3-1c-0.5-0.3-1.1-0.4-1.6-0.4c-1,0-1.9,0.4-2.7,1.1
				c-0.7,0.7-1.1,1.6-1.1,2.7c0,1.1,0.4,1.9,1.1,2.7c0.7,0.7,1.6,1.1,2.7,1.1c0.6,0,1.1-0.1,1.6-0.4c0.5-0.3,1-0.6,1.3-1h2.5
				c-0.5,1.1-1.2,1.9-2.2,2.6C227,84.5,225.9,84.8,224.7,84.8z"/>
			<path class="st2" d="M237.7,73c1.6,0,3,0.6,4.2,1.7c1.2,1.1,1.7,2.5,1.7,4.2c0,1.6-0.6,3-1.7,4.2c-1.2,1.2-2.5,1.7-4.2,1.7
				c-1.6,0-3-0.6-4.2-1.7c-1.1-1.1-1.7-2.5-1.7-4.2c0-1.6,0.6-3,1.7-4.2C234.6,73.6,236,73,237.7,73z M233.9,78.9
				c0,1,0.4,1.9,1.1,2.7c0.7,0.7,1.6,1.1,2.6,1.1c1.1,0,1.9-0.4,2.7-1.1c0.7-0.7,1.1-1.6,1.1-2.7c0-1-0.4-1.9-1.1-2.6
				c-0.7-0.7-1.6-1.1-2.7-1.1c-1,0-1.9,0.4-2.6,1.1C234.3,77,233.9,77.9,233.9,78.9z"/>
			<path class="st2" d="M245.7,73.1h1.9l5,7.4v-7.4h2.2v11.6h-2l-5-7.3v7.3h-2.2V73.1z"/>
			<path class="st2" d="M257.3,73.1h1.9l5,7.4v-7.4h2.2v11.6h-2l-5-7.3v7.3h-2.2V73.1z"/>
			<path class="st2" d="M268.9,73.1h5.5v2h-3.3v2.7h3.3V80h-3.3v2.7h3.3v2h-5.5V73.1z"/>
			<path class="st2" d="M282.3,84.8c-1.6,0-3-0.6-4.2-1.7c-1.1-1.2-1.7-2.6-1.7-4.2c0-1.6,0.6-3,1.7-4.2c1.2-1.2,2.5-1.7,4.2-1.7
				c1.2,0,2.3,0.3,3.2,1c1,0.6,1.7,1.5,2.2,2.5h-2.5c-0.3-0.4-0.8-0.7-1.3-1c-0.5-0.3-1.1-0.4-1.6-0.4c-1,0-1.9,0.4-2.7,1.1
				c-0.7,0.7-1.1,1.6-1.1,2.7c0,1.1,0.4,1.9,1.1,2.7c0.7,0.7,1.6,1.1,2.7,1.1c0.6,0,1.1-0.1,1.6-0.4c0.5-0.3,1-0.6,1.3-1h2.5
				c-0.5,1.1-1.2,1.9-2.2,2.6C284.5,84.5,283.4,84.8,282.3,84.8z"/>
			<path class="st2" d="M289.4,73.1h6v2h-1.9v9.6h-2.2v-9.6h-1.9V73.1z"/>
			<path class="st2" d="M297.8,73.1h2.2v11.6h-2.2V73.1z"/>
			<path class="st2" d="M308.2,73c1.6,0,3,0.6,4.2,1.7c1.2,1.1,1.7,2.5,1.7,4.2c0,1.6-0.6,3-1.7,4.2c-1.2,1.2-2.5,1.7-4.2,1.7
				c-1.6,0-3-0.6-4.2-1.7c-1.1-1.1-1.7-2.5-1.7-4.2c0-1.6,0.6-3,1.7-4.2C305.2,73.6,306.6,73,308.2,73z M304.5,78.9
				c0,1,0.4,1.9,1.1,2.7s1.6,1.1,2.6,1.1c1.1,0,1.9-0.4,2.7-1.1c0.7-0.7,1.1-1.6,1.1-2.7c0-1-0.4-1.9-1.1-2.6
				c-0.7-0.7-1.6-1.1-2.7-1.1c-1,0-1.9,0.4-2.6,1.1C304.9,77,304.5,77.9,304.5,78.9z"/>
			<path class="st2" d="M316.3,73.1h1.9l5,7.4v-7.4h2.2v11.6h-2l-5-7.3v7.3h-2.2V73.1z"/>
		</g>
		<path class="st2" d="M333.9,76.3h-2.1c0-0.2-0.1-0.5-0.3-0.7c-0.1-0.2-0.3-0.3-0.6-0.4c-0.1,0-0.2,0-0.3,0c-0.1,0-0.2,0-0.4,0.1
			c-0.1,0-0.2,0.1-0.4,0.3c-0.2,0.2-0.2,0.4-0.2,0.7c0,0.1,0,0.2,0.1,0.4c0,0.2,0.2,0.4,0.4,0.5c0.2,0.2,0.5,0.3,0.8,0.4l0.3,0.1
			c0.9,0.3,1.6,0.7,2,1.1c0.4,0.5,0.7,0.9,0.7,1.4c0.1,0.5,0.1,0.8,0.1,0.9c0,0.6-0.1,1.1-0.3,1.6c-0.2,0.5-0.5,0.9-0.9,1.2
			c-0.4,0.3-0.8,0.5-1.1,0.6c-0.4,0.1-0.7,0.2-1.1,0.2c-0.5,0-1-0.1-1.6-0.4c-0.5-0.3-1-0.7-1.3-1.3c-0.3-0.6-0.5-1.2-0.5-1.9h2
			c0,0.4,0.1,0.6,0.2,0.9c0.1,0.2,0.3,0.4,0.5,0.5c0.2,0.1,0.4,0.1,0.6,0.1c0.3,0,0.6-0.1,0.9-0.3c0.3-0.2,0.4-0.6,0.4-1.1
			c0-0.1,0-0.2-0.1-0.4c0-0.2-0.2-0.4-0.4-0.6c-0.2-0.2-0.6-0.4-1.1-0.6l-0.3-0.1c-0.9-0.4-1.5-0.8-1.9-1.2c-0.4-0.4-0.6-1-0.6-1.7
			v-0.2c0-0.5,0.1-1,0.3-1.5c0.2-0.5,0.5-0.9,0.8-1.1c0.3-0.2,0.7-0.4,1-0.5c0.3-0.1,0.6-0.1,0.9-0.1c0.6,0,1.1,0.1,1.6,0.4
			c0.5,0.3,0.9,0.7,1.2,1.2C333.7,75.3,333.9,75.8,333.9,76.3z"/>
	</g>
	<g>
		<path class="st3" d="M96.9,24.6c-0.1,0.4-0.3,1.2-0.5,1.9c0.1,0,0.1,0,0.1-0.1c0.2-1,0.5-2.4,1.1-3.6
			C97.5,23.2,97.1,23.8,96.9,24.6z"/>
		<path class="st0" d="M122.3,33.6c-0.1-0.4-0.3-1.3-0.4-2c0-0.7-0.4-1.4-0.5-1.8c-0.2-0.5-0.6-3.1-0.7-4c-0.1-0.9-0.8-2.4-1-3
			c-0.3-0.6-1.1-1.2-1.1-1.2l-0.1-0.3l-1.4-1.2l-0.1-0.3l-0.5-0.7c0,0,0-0.3,0-0.4c0-0.1-0.1-0.7-0.2-1.1c-0.1-0.3-0.1-0.6-0.1-1
			c0-0.4-0.1-1-0.5-1.4c-0.4-0.4-1.5-0.4-2.3-0.4c-0.7,0.1-2.5,0-2.5,0l-0.8-0.3c0,0,0.1-0.5,0.1-0.9c0-0.4-0.1-0.6-0.1-0.6l0.3-0.9
			l-0.1-0.2c0,0,0.2-0.3,0.3-0.7c0.1-0.4,0.1-0.7,0.1-1.3c0-0.6-0.3-0.7-0.9-1.1c-0.6-0.4-2.7-0.9-3.4-1.2c-0.7-0.2-3-0.1-3.3,0.1
			c-0.4,0.2-0.4,0.5-0.4,0.5l-0.3,0.2c0,0,0,0.3-0.1,0.6c0,0.3-0.3,0.5-0.3,0.5l0.2,0.3l0,0.3c0,0-0.5,0.2-1,0.4
			c-0.4,0.2-1.8,0.9-1.8,0.9s0.5,0.4,0.8,0.6c0.3,0.2,1.3,0.2,1.3,0.2l0,0.4l0.2,0.2c0,0-0.3,0.4-0.6,0.8c-0.3,0.3-0.5,0.5-0.5,0.8
			c0,0.3,0.6,0.4,0.7,0.5c0.2,0.1,0,0.7,0,0.7l0.3,0.2c0,0-0.1,0.2-0.1,0.3c0,0.1,0.2,0.3,0.4,0.4c0.2,0.1-0.1,0.5-0.1,0.9
			c0.1,0.4,0.9,0.7,0.9,0.7s-0.2,0.5-0.4,0.8s-1.1,0.6-1.1,0.6s-1.1,0.6-1.6,0.8c-0.5,0.2-1.9,1.2-1.9,1.2l0.2,0.3
			c0,0-0.3,0.5-0.4,0.8c0,0,0,0,0,0c0,0,0,0.1,0,0.1c0,0,0,0,0,0.1c0,0,0,0,0,0c-0.6,1.2-0.9,2.6-1.1,3.6c0,0.1-0.1,0.1-0.1,0.1
			c-0.1,0-0.2,0-0.5,0.1c-0.5,0.3-0.6,0.6-0.8,0.6c-1.3,0-2.4,1.2-3.2,1.1c-1.7-0.2-4.6,1.3-6.3,1.5c0,0-0.1,0-0.1,0
			c-0.2-0.1-0.6-0.2-0.8-0.2c-0.2-0.1-0.4-0.1-0.5-0.1c-0.1,0-0.3,0-0.4,0c-0.2,0-0.4,0-0.6-0.1c-0.2,0-0.4-0.1-0.6-0.1
			c-0.2,0-0.2,0-0.3,0c-0.1,0-0.1,0.1-0.2,0.2c-0.1,0.1-0.2,0.1-0.3,0.2c-0.1,0-0.2,0.1-0.3,0.1c-0.1,0-0.3,0.1-0.3,0.1
			c-0.1,0.1-0.1,0.1,0,0.2c0,0.1,0,0.1,0.1,0.2c0.1,0.1,0.2,0.1,0.2,0.2c0.1,0,0.1,0,0,0c-0.1,0-0.2,0-0.5,0c-0.2,0-0.6,0.1-1,0.2
			c-0.3,0-0.7,0.1-1.1,0.1c0,0,0,0,0-0.1c-0.1,0-0.2,0-0.3-0.1c-0.2-0.1-0.7,0-1.1,0c-0.4,0-3.2,0.2-3.2,0.3c0,0,0,0,0,0
			c-0.2-0.1-1.3-0.6-2.6-0.8c-1-0.2-1,0.2-1.1,0.3c-0.1,0.1-0.1,0-0.6-0.1C69.7,30,69.5,30,69,29.9c-0.4-0.1-1-0.1-1.4-0.3
			c-0.1-0.1-0.2-0.2-0.2-0.2c-0.2-0.3-0.3-0.5-0.6-0.5c-0.1,0-0.1,0-0.2,0c-0.3,0-0.5-0.3-0.9-0.8c-0.4-0.6-1.6-1.1-2.4-1.9
			c-0.3-0.3-0.5-0.5-0.7-0.7c0-0.1,0-0.3-0.1-0.4c-0.1-0.1-0.3-0.3-0.3-0.4c0-0.1-0.1-0.3-0.2-0.5c-0.1-0.2-0.2-0.4-0.3-0.6
			c-0.1-0.1-0.1-0.2-0.2-0.2c0-0.3,0.1-0.6,0.2-0.8c0,0-0.1-0.3-0.4-0.6c0,0,0,0,0-0.1c0-0.1,0.3-0.3,0.4-0.3c0.1,0,0.2,0.1,0.4,0.3
			c0.2,0.1,0.9,0.2,1.4,0.1c0.4-0.1,0.3-0.7,0.3-0.7c0-0.1-0.1-0.2,0-0.3c0.1-0.1,0.4-0.3,0.4-0.3c0.1,0-0.1-0.4-0.1-0.5
			c0-0.1,0.2,0,0.3,0c0.1,0,0.2,0,0.2-0.1c0.1-0.1,0.1-0.5,0.1-0.6c0-0.1,0.1-0.2,0.2-0.1c0.1,0,0.4,0.1,0.6,0.1
			c0.2,0,0.3-0.4,0.2-0.5c0-0.1-0.2-0.5-0.4-0.9c0.2-0.1,0.5-0.6,0.5-0.7c0.1-0.1,0.1-0.2,0.1-0.3c-0.1-0.1-0.5-0.2-0.5-0.2
			c0.1-0.1,0.1-1,0.1-1.5c0-0.5,0.1-0.7,0.1-0.8c0.1-0.1,0.1-0.1,0.5-0.2c0.4-0.1,0.5-0.4,0.5-0.5c-0.1,0.1-0.2,0.1-0.2,0.2
			c0.4-0.3,0.3-0.5,0.3-0.5c-0.2,0.3-0.6,0-0.6,0c0.1,0,0.2-0.1,0.2-0.1c-0.1,0-0.1,0-0.2-0.2c-0.1-0.2,0-0.4-0.2-0.6
			c-0.2-0.2-0.3-0.3-0.4-0.4c-0.1-0.1-0.1-0.2-0.3-0.4c-0.2-0.2-0.4-0.1-0.8-0.2c-0.4-0.1-1.7-0.5-1.8-0.5c-0.2-0.1-0.7-0.1-0.6-0.1
			c0.1,0,0.1-0.1,0.1-0.1c0,0-0.1,0.1-0.3,0c-0.2,0-0.5-0.1-0.8-0.1c-0.2,0-0.4,0.1-0.6,0.1c-0.2,0.1-0.4,0.1-0.5,0.1
			c-0.1,0-0.2,0-0.2,0c-0.2,0-0.4,0.2-0.7,0.5c-0.3,0.3-0.3,0.4-0.6,0.6c-0.3,0.2-0.5,0.4-0.8,0.9c-0.3,0.5-0.7,1.2-1,1.8
			c-0.3,0.6,0,1.2,0.1,1.7c0.1,0.4,0.4,2.2,0.4,2.5c0,0.3-0.1,0.7-0.2,0.9c-0.5-0.1-1.1-0.1-1.2,0.2c-0.1,0.5-0.1,1.5-0.2,1.8
			c-0.3,0.3-1,1-1.3,1.4c-0.3,0.4-0.5,0.8-0.9,1.2c-0.3,0.4-0.6,0.9-1,1.5c-0.4,0.6-0.5,1.7-0.7,2.2c-0.1,0.5-0.1,1.1-0.2,1.7
			c-0.1,0.6,0.8,3.5,1.1,4.3c0.3,0.8,0.9,2.9,1.3,3.7c0.3,0.6,0.8,1.3,1.2,1.6c0.3,0.4,0.7,0.7,0.8,1c0.1,0.2,0,0.4,0,0.5
			c-0.1,0.2-0.1,0.7-0.1,0.8c0.1,0.2,0,0.4-0.2,0.5c0,0-0.1,0.1-0.1,0.1c0,0-0.1,0.1-0.1,0.1c-0.1,0.2-0.2,0.4-0.2,0.6
			c0,0-0.1,0.1-0.1,0.1c-0.1,0.1-0.1,0.1-0.2,0.2c0,0,0.1-0.1,0.1-0.1c0,0-0.1,0.1-0.1,0.1c0,0,0,0,0,0c0,0,0,0,0,0c0,0,0,0,0,0
			c0,0,0,0,0,0c-0.1,0.1-0.3,0.3-0.3,0.5c0,0.1-0.1,0.2-0.1,0.3c-0.1,0.6,0.3,0.7,0.6,0.6c0,0,0,0,0.1,0c0,0,0,0,0,0
			s-0.1,0.2-0.2,0.5c0,0.1-0.1,0.4-0.2,0.7c-0.2,0.4-0.4,0.7-0.4,1c0,0.1,0,0.1,0,0.2c0,0.2-0.1,0.5-0.1,0.7c0,0.5,0.3,3.1,0.4,3.5
			c0.1,0.5,0.2,0.8,0.4,1.1c0.1,0.3,0.8,2.6,1.1,3.5c0.2,0.9,0.3,1.3,0.2,1.9c0,0.6,0,2.1,0.1,2.4c0.1,0.3-0.2,0.5-0.4,1
			c-0.2,0.5-0.1,2.1,0,2.6c0.1,0.5-0.5,0.8-0.7,1c-0.2,0.2-0.2,1.1-0.2,1.4c0,0.3-0.4,0.4-0.4,0.9c-0.1,0.5-0.2,1.5-0.3,2
			c-0.2,0.6-0.1,1.7-0.3,2.3c-0.2,0.5-0.1,1.1-0.2,1.6c-0.1,0.5-0.7,4.5-0.9,5.3c-0.2,0.9-0.3,3.1-0.3,3.5c0,0.4-0.1,0.9,0,1.2
			c0.1,0.3,0,0.8,0,1c0,0.2,0.2,0.3,0,0.4c-0.1,0.1-0.2,1.2-0.2,1.2c2.3,0.6,4.3,0.3,4.4,0.3c0,0,0.2-0.6,0.2-0.6
			c0.9,0.3,2.4,0.4,2.4,0.4c0,0.1,0,0.2,0,0.2c0.3,0.2,1.6,0.2,1.6,0.2l1.3-0.3c0.2,0.1,0.4,0.1,0.8,0.1c0.4,0,5.5-0.1,6-0.1
			c0.5,0,1-0.2,1.2-0.3c0.2-0.1,0.2-0.2,0.2-0.2s-0.1-0.4-0.1-0.5c-0.1-0.1-0.1-0.2-0.3-0.3c0-0.1-0.1-0.3-0.3-0.4
			c-0.4-0.3-1.4-0.3-1.7-0.4c-0.4-0.1-0.6-0.3-0.9-0.6c-0.3-0.3-0.5-0.3-0.8-0.7c-0.3-0.4-0.6-0.8-0.7-1.1c-0.1-0.2,0-1,0.1-1.3
			c0.1-0.3,0.2-0.6,0-0.7c-0.1-0.2-0.4-0.2-0.6-0.4c-0.1-0.2,0.2-0.8,0.3-1c0.1-0.3-0.1-0.5-0.3-0.8c-0.1-0.3-0.5-2.2-0.7-3.2
			c-0.2-0.9-0.5-2.2-0.6-2.4c-0.1-0.2,0.2-0.5,0.4-1.2c0.1-0.6,0.3-2,0.4-3.6c0.1-1.6,0.4-5.1,0.4-6c0-0.9,0.3-2.8,0.5-3.5
			c0.2-0.8,0.3-1.2,0.2-1.6c-0.1-0.4-0.2-0.9-0.3-1.8c-0.1-0.8,0.1-1.4,0.2-1.7c0.1-0.3,0.2-0.7,0.2-1.1c0-0.4,0.1-0.9,0.3-1.5
			c0.1-0.5,0.1-1.4,0-2.2c-0.1-0.8-0.3-2.1-0.3-2.5c0-0.4-0.4-0.9-0.2-0.9c0.1,0,0.6,0.1,0.6-0.1c0-0.2,0.1-0.6,0.1-2.3
			c0.1-1.6,0-2.7,0-2.8c0-0.2-0.2-1.5-0.1-2.5c0-0.6-0.1-1.2-0.2-1.7c0.6,0.2,1.2,0.3,1.4,0.3c0.4,0.1,0.7,0.1,1.1,0.2
			c0.5,0.1,0.4,0,0.5,0.2c0.1,0.2,0.8,0.5,1.2,0.7c0.4,0.2,0.9,0.2,1.2,0.1c0.4-0.1,0.7-0.6,0.9-1c0.1-0.3,0.2-0.3,0.6-0.5
			c0,0,0,0,0.1,0c0.6-0.2,1.5-0.5,2.2-0.7c0.4-0.2,1-0.4,1.7-0.6c0.4-0.1,0.8-0.3,1.1-0.4c0,0.1-0.1,0.2-0.1,0.3c0.1,0,0.3,0,0.4,0
			c0.2,0,0.3,0,0.5,0.1c0.1,0,0.3,0.1,0.5,0.1c0.2,0,0.4,0.1,0.6,0.1c0.2,0,0.4,0,0.5,0c0.1,0,0.2-0.1,0.2-0.1c0,0,0,0,0,0
			c0,0,0,0.1,0,0.1c0,0.1,0,0.1,0.1,0.2c0,0.1,0.1,0.1,0.2,0.2c0.1,0.1,0.2,0.1,0.3,0.1c0.1,0,0.1,0,0.2,0c0.1,0,0.2-0.1,0.2-0.2
			c0.1-0.1,0.1-0.1,0.2-0.1c0,0,0,0,0,0c0,0,0,0.1,0,0.2c0,0.1,0,0.1,0,0.2c0,0.1,0.1,0.1,0.2,0.2c0.1,0.1,0.1,0.1,0.2,0.1
			c0.1,0,0.2,0,0.2,0c0.1,0,0.1,0,0.1,0c0,0,0,0,0,0c0,0,0,0.1,0,0.2c0,0.1,0.1,0.1,0.2,0.2c0.1,0.1,0.2,0.1,0.2,0.1
			c0.1,0,0.1,0,0.2,0c0.1,0,0.1,0,0.2-0.1c0.1,0,0.1-0.1,0.1-0.1c0,0,0,0,0,0c0,0.1,0,0.1,0,0.2c0,0.1,0,0.1,0.1,0.1
			c0,0,0.1,0.1,0.2,0.1c0.1,0,0.2,0.1,0.2,0.1c0.1,0,0.2,0,0.3,0c0.1,0,0.3-0.1,0.4-0.1c0.1,0,0.2-0.1,0.3-0.1c0.1,0,0.1,0,0.1,0
			c0,0,0.1,0.1,0.2,0.1c0.1,0,0.1,0,0.2,0c0.1,0,0.2,0,0.3-0.1c0.1,0,0.1-0.1,0.1-0.2c0-0.1,0-0.1-0.1-0.2c0,0,0,0,0,0
			c0,0,0.1,0,0.2,0c0.1,0,0.2,0,0.3-0.1c0,0,0,0,0,0c0.1,0.5,0.2,0.9,0.3,0.9c0.3,0.4,3.6-0.8,4.3-1c4.6-1.4,6.3-0.4,8.3-0.5
			c0.4,1.6,0.6,3.3,0.3,5c0.4,0.7,0.6,1.5,0.7,2.3c0.1,0.8-0.1,1.5-0.5,2.1c0,0.2,0,0.4,0,0.6c-0.1,0.5-0.8,0.8-1.1,1.4
			c-0.2,0.6,0.1,1.8,0.1,1.8l-0.7,2l-0.4,0.5l-0.3,0.9l0.1,0.2c0,0-0.2,0.5-0.3,1c-0.1,0.5-0.2,1.4-0.2,1.4s-0.4,1.3-0.3,2
			c0,0.7,0.6,1.2,0.9,1.4c0.3,0.1-0.2,0.8-0.3,1.3c-0.1,0.5,0.2,1,0.3,1.8c0.1,0.7-0.4,1.7-0.5,2.6c-0.1,0.8-0.1,2.4-0.2,3.4
			c0,1,0.2,2,0.2,2s-0.1,0.5-0.1,0.7c0,0.2,0.2,0.7,0.2,0.7s-0.1,0.4,0.1,0.9c0.2,0.5,1.1,0.7,1.2,0.9c0.1,0.2-0.6,0.3-0.9,0.5
			c-0.3,0.2,0,1,0,1l-0.2,0.2l0.7,0.5l0.4,0.5l0,0.3c-0.2,0.2-0.4,0.4-0.6,0.6c-0.2,0.3-0.4,0.5-0.5,0.9c-0.1,0.5,0.2,0.6,0.5,0.6
			c0.3,0,0.6-0.3,0.6-0.7c0.1-0.3,0.2-0.8,0.2-0.8s0.2,0.6,0.2,1.1c0,0.4-0.1,0.6-0.1,1c0,0.3,0.4,0.5,0.4,0.5l-0.3,1l-0.1,1
			l-0.8,0.8l0,0.2L97,80.3l-0.3,0.6l-0.3,0.1c0,0-0.2,0.3-0.4,0.6c-0.2,0.3-1,0.1-1.4,0c-0.4,0-0.7,0.2-0.9,0.5
			c-0.2,0.3-0.2,1.2-0.2,1.2s1.2,0.4,1.7,0.5c0.6,0,2.4,0.5,3,0.3c0.6-0.1,1.2-0.8,1.2-0.8l0.4,0.2c0,0,1.1,0.4,2,0.2
			c0.9-0.2,2-0.4,2-0.4l-0.2-1.4l-0.2-0.2c0,0-0.1-0.4-0.2-0.8c-0.1-0.4,0-0.6,0-1c0-0.4-0.3-0.9-0.3-0.9s0.1-0.3,0.2-0.5
			c0-0.2-0.1-0.4-0.1-0.4s0.2-0.4,0.2-0.4c0-0.1,0-3.4,0-3.4s0.6-0.2,0.8-0.3c0.2-0.1,0-0.5,0-0.5s0.2-0.3,0.1-0.6
			c0-0.3-0.4-0.2-0.5-0.2c0,0,0.7-0.4,0.9-1c0.2-0.6-0.2-2.3-0.4-2.7c-0.1-0.4-0.8-0.6-0.8-0.6s0.9-1.3,1.1-2c0.2-0.6-0.3-1-0.4-1.3
			c0-0.4,0.5-0.9,0.8-1.8c0.3-0.9,0.3-2.6,0.3-2.6l0.3,0.9c0,0,0.4,1.2,0.7,2c0.3,0.7,0.5,1.5,0.5,2.1c0.1,0.6,0.5,1.3,0.5,1.3
			s0.1,0.7,0.1,0.9c0,0.3,0.1,0.6,0.2,1s0.2,1.1,0.1,1.8c-0.1,0.7-0.2,2.6-0.2,3.1c0,0.5,0.6,1.3,0.9,1.5c0.3,0.2,0.8,0.1,0.8,0.1
			l-0.1,1.1l0.1,0.6l-0.1,1.4l0.1,0.3l-0.4,0.5l0.2,0.2c0,0-0.1,0.2-0.1,0.3c0,0.1,0.3,0.3,0.3,0.3l0,0.7c0,0-0.2,0.3-0.3,0.5
			c-0.1,0.2-0.1,0.7-0.1,0.7l-0.3,0.3l-0.2,0.3c0,0-0.2,0.1-0.4,0.2c-0.1,0.1-0.4,0.6-0.4,0.6l-0.2,0.1l0.2,1c0,0,0.3,0.3,1,0.3
			c0.7,0.1,2.8,0.1,3.3-0.1c0.4-0.1,0.8-0.6,0.8-0.6l0.2,0l0.4-0.3c0,0,0-0.3,0-0.5c0-0.2-0.1-0.5-0.1-0.5s0.1-0.4,0.2-0.8
			c0-0.3-0.1-0.8-0.2-0.9c-0.1-0.1,0.2-0.3,0.3-0.6c0.1-0.3-0.2-0.5-0.2-0.5s0.1-0.5,0.3-1.4c0.2-0.9,0.8-3.6,0.8-3.6
			s0.5-0.1,0.7-0.1c0.2,0,0.4-0.2,0.4-0.8c0-0.6-0.8-0.7-0.8-0.7s0.4-0.2,0.7-0.4c0.2-0.2,0.6-0.6,0.8-1.3c0.2-0.7-0.2-2.4-0.2-2.4
			s0.1-1.1,0.2-1.5c0-0.4-0.6-1.5-0.7-2c-0.1-0.5,0-1.2-0.1-1.6c0-0.4,0-1.2-0.1-1.6c-0.1-0.4-0.3-0.8-0.4-1.1
			c-0.1-0.3,0.1-0.5,0.1-1c0-0.5-0.2-1.8-0.4-2.5c-0.1-0.3,0-0.7,0-1c0-0.2-0.1-0.5-0.1-0.7c-0.1-0.8,0.1-1.5,0.4-2.1
			c0.1-0.6,0.3-1.2,0.6-1.6l-0.1-0.6l0.3,0l0.4-0.3l0.2,0c0,0,0.3-0.1,0.5-0.3c0.2-0.2,0.5-0.5,0.5-0.5l0.1-0.1c0,0,0.3-0.2,0.4-0.5
			c0.1-0.2,0.3-0.7,0.4-1.4c0.1-0.8,0.1-1.8,0.1-1.8l0.1-0.1l0-0.9c0,0,0.2,0,0.4-0.3c0.2-0.3,0.1-0.6,0.1-0.6s0.5,0,0.8-0.2
			c0.3-0.2,0.2-0.3,0.5-0.7c0.2-0.4,0.6-0.7,1-1.1c0.4-0.4,0.2-0.5,0.3-0.9c0.1-0.4,0.3-0.9,0.3-1.4c0-0.5,0.2-1,0.3-1.4
			c0.1-0.4-0.3-0.5-0.3-0.5s0.3-0.5,0.5-0.7c0.2-0.3,0.6-2.1,0.7-2.6C122.9,35.1,122.4,34,122.3,33.6z M65.1,16.8
			c0.3,0,0.6,0.1,0.6,0.1s0,0-0.1,0.1c-0.1,0.1-0.4,0.2-0.5,0.4C65.1,17.4,64.9,16.9,65.1,16.8z M59.6,79.7c0,0.3-0.7,1-0.7,1
			s0-2.1-0.1-2.8c0-0.4,0-0.6-0.1-0.7c0,0,0,0.1,0,0.1c0.1,0.3,0.2,0.8,0.3,1C59.4,78.7,59.6,79.4,59.6,79.7z M97.8,74.9
			c0,0.2-0.1,0.4-0.2,0.6c-0.1,0.2-0.2,0.2-0.4,0.2c-0.2,0-0.2-0.2-0.2-0.5c0-0.3,0.2-0.5,0.4-0.7c0.1-0.1,0.2-0.2,0.4-0.4l0,0.2
			C97.8,74.2,97.8,74.6,97.8,74.9z M115.7,38.3c-0.1,0.5-0.2,1.2-0.2,1.2l-0.2,0.6c0,0-0.2-0.7-0.1-1.2c0.1-0.5,0.3-1,0.3-1.4
			c0-0.4-0.1-1.2-0.1-1.2s0.3,0.3,0.4,0.5c0.1,0.2,0.2,0.8,0.2,0.8S115.8,37.7,115.7,38.3z"/>
		<polygon class="st4" points="72.2,34.7 72.2,34.7 72.2,34.7 		"/>
		<path class="st4" d="M97.7,22.6C97.7,22.6,97.7,22.6,97.7,22.6C97.7,22.6,97.7,22.6,97.7,22.6z"/>
		<g>
			<radialGradient id="SVGID_1_" cx="90.2536" cy="41.5078" r="39.4238" gradientUnits="userSpaceOnUse">
				<stop  offset="0" style="stop-color:#EDD688"/>
				<stop  offset="0.6854" style="stop-color:#EABA10"/>
				<stop  offset="1" style="stop-color:#C2912E"/>
			</radialGradient>
			<path class="st5" d="M45.7,42.5c0,0-0.4,0.3-1.3,0.9c-0.8,0.6-2,1.4-3.4,2.6c-0.7,0.6-1.4,1.3-2,2.2c-0.3,0.4-0.5,0.9-0.5,1.3
				c0,0.4,0.2,0.7,0.7,1c0.9,0.6,2.2,0.8,3.6,1c1.4,0.2,2.9,0.2,4.4,0.3c3.1,0,6.5-0.2,10.1-0.5c3.6-0.3,7.4-0.7,11.3-1.2
				c3.9-0.5,8-1.1,12.1-1.7c4.1-0.6,8.3-1.3,12.4-2c4.2-0.7,8.3-1.4,12.4-2.2c4.1-0.8,8.1-1.6,11.9-2.4c3.9-0.9,7.6-1.7,11.1-2.6
				c3.5-1,6.8-1.9,9.6-3.1c0.7-0.3,1.4-0.6,2-1c0.6-0.3,1.1-0.8,1.3-1.1c0.1-0.2,0.1-0.1,0.1-0.2c0-0.1-0.2-0.3-0.4-0.4
				c-0.4-0.3-1-0.6-1.6-0.8c-2.4-0.8-4.6-1.1-6.4-1.4c-3.7-0.6-5.8-0.8-5.8-0.8s0.5,0,1.5,0c1,0,2.5,0,4.3,0.1
				c1.9,0.1,4.1,0.2,6.8,0.8c0.7,0.2,1.3,0.4,2.1,0.8c0.4,0.2,0.8,0.5,1.1,1c0.3,0.5,0.3,1.4,0.1,1.8c-0.2,0.5-0.6,0.9-0.9,1.2
				c-0.3,0.3-0.7,0.6-1,0.8c-0.7,0.5-1.4,0.9-2.1,1.3c-2.9,1.5-6.2,2.7-9.7,3.8c-3.5,1.1-7.2,2.2-11.1,3.2c-3.9,1-7.9,2-12,2.8
				c-4.1,0.8-8.3,1.6-12.5,2.4c-4.2,0.7-8.4,1.3-12.6,1.9c-4.2,0.6-8.3,1-12.2,1.3c-4,0.4-7.8,0.6-11.5,0.7
				c-3.7,0.1-7.2,0.1-10.4-0.2c-1.6-0.1-3.2-0.3-4.6-0.6c-1.5-0.3-2.9-0.7-4.1-1.6c-0.6-0.4-1.2-1.3-1.1-2.2
				c0.1-0.8,0.5-1.4,0.9-1.9c0.8-0.9,1.6-1.6,2.4-2.1c1.5-1.1,2.9-1.7,3.7-2.2C45.3,42.7,45.7,42.5,45.7,42.5z"/>
		</g>
		<g>
			<path class="st6" d="M141.2,36.9c-1.2,0.8-2.4,1.7-3.6,2.5c0.1-0.2,0.1-0.4,0.2-0.5c0.2-0.7,0.5-1.4,0.7-2.1
				c0.2-0.5,0.3-1,0.5-1.4c0-0.1,0-0.1,0-0.2c-0.9-0.6-1.7-1.3-2.6-1.9c-0.3-0.2-0.6-0.5-1-0.7c0,0,0,0,0,0c0,0,0.1,0,0.1,0
				c1.4,0,2.8,0,4.3,0c0.1,0,0.1,0,0.2-0.1c0.2-0.6,0.4-1.3,0.6-1.9c0.2-0.7,0.5-1.4,0.7-2.1c0,0,0-0.1,0-0.1
				c0.1,0.2,0.1,0.3,0.2,0.5c0.1,0.3,0.2,0.7,0.3,1c0.2,0.8,0.5,1.5,0.7,2.3c0,0.1,0.1,0.2,0.1,0.3c0,0.1,0.1,0.1,0.2,0.1
				c0.7,0,1.4,0,2.2,0c0.7,0,1.4,0,2.1,0c0,0,0.1,0,0.1,0c-0.3,0.2-0.5,0.4-0.8,0.6c-0.7,0.5-1.4,1-2.1,1.5
				c-0.2,0.2-0.4,0.3-0.7,0.5c-0.1,0-0.1,0.1-0.1,0.2c0.2,0.7,0.5,1.4,0.7,2.1c0.2,0.6,0.4,1.3,0.6,1.9c0,0,0,0,0,0.1
				C143.6,38.6,142.4,37.7,141.2,36.9z"/>
		</g>
	</g>
</g>
<g>
	<path class="st1" d="M19.5,100.2c0.1,0,0.2,0,0.2,0.1l0.6,0.7c-0.3,0.4-0.7,0.7-1.2,0.9c-0.5,0.2-1.1,0.3-1.8,0.3
		c-0.6,0-1.2-0.1-1.6-0.3c-0.5-0.2-0.9-0.5-1.2-0.9c-0.3-0.4-0.6-0.8-0.8-1.3c-0.2-0.5-0.3-1.1-0.3-1.7c0-0.6,0.1-1.2,0.3-1.7
		c0.2-0.5,0.5-1,0.9-1.3c0.4-0.4,0.8-0.7,1.3-0.9c0.5-0.2,1.1-0.3,1.7-0.3c0.6,0,1.1,0.1,1.6,0.3s0.8,0.5,1.2,0.8l-0.5,0.7
		c0,0-0.1,0.1-0.1,0.1s-0.1,0.1-0.2,0.1c-0.1,0-0.2,0-0.3-0.1s-0.2-0.1-0.3-0.2s-0.3-0.2-0.5-0.2s-0.5-0.1-0.8-0.1
		c-0.4,0-0.7,0.1-1.1,0.2s-0.6,0.3-0.8,0.6s-0.4,0.6-0.5,0.9c-0.1,0.4-0.2,0.8-0.2,1.2c0,0.5,0.1,0.9,0.2,1.2
		c0.1,0.4,0.3,0.7,0.5,0.9s0.5,0.4,0.8,0.6c0.3,0.1,0.6,0.2,1,0.2c0.2,0,0.4,0,0.6,0s0.3-0.1,0.5-0.1c0.1,0,0.3-0.1,0.4-0.2
		c0.1-0.1,0.3-0.2,0.4-0.3c0,0,0.1-0.1,0.1-0.1C19.4,100.2,19.5,100.2,19.5,100.2z"/>
	<path class="st1" d="M23.9,96.2c0.4,0,0.8,0.1,1.2,0.2c0.4,0.1,0.7,0.3,0.9,0.6c0.2,0.3,0.4,0.6,0.6,0.9s0.2,0.8,0.2,1.2
		c0,0.5-0.1,0.9-0.2,1.2s-0.3,0.7-0.6,0.9c-0.2,0.3-0.6,0.5-0.9,0.6c-0.4,0.1-0.7,0.2-1.2,0.2c-0.4,0-0.8-0.1-1.2-0.2
		s-0.7-0.3-0.9-0.6c-0.3-0.3-0.4-0.6-0.6-0.9S21,99.7,21,99.2c0-0.5,0.1-0.9,0.2-1.2s0.3-0.7,0.6-0.9c0.3-0.3,0.6-0.5,0.9-0.6
		C23.1,96.3,23.5,96.2,23.9,96.2z M23.9,101.1c0.5,0,0.8-0.2,1.1-0.5c0.2-0.3,0.3-0.8,0.3-1.4s-0.1-1.1-0.3-1.4s-0.6-0.5-1.1-0.5
		c-0.5,0-0.9,0.2-1.1,0.5s-0.4,0.8-0.4,1.4s0.1,1.1,0.4,1.4C23,101,23.4,101.1,23.9,101.1z"/>
	<path class="st1" d="M27.9,102.1v-5.8h0.9c0.2,0,0.3,0.1,0.4,0.3l0.1,0.5c0.1-0.1,0.2-0.2,0.4-0.3c0.1-0.1,0.3-0.2,0.4-0.3
		c0.1-0.1,0.3-0.1,0.5-0.2c0.2,0,0.3-0.1,0.5-0.1c0.3,0,0.6,0.1,0.8,0.2c0.2,0.1,0.5,0.3,0.6,0.5c0.2,0.2,0.3,0.4,0.4,0.7
		c0.1,0.3,0.1,0.6,0.1,0.9v3.7h-1.4v-3.7c0-0.4-0.1-0.6-0.2-0.8s-0.4-0.3-0.7-0.3c-0.2,0-0.5,0.1-0.7,0.2c-0.2,0.1-0.4,0.3-0.6,0.4
		v4.2H27.9z"/>
	<path class="st1" d="M34.3,102.1v-5.8h0.9c0.2,0,0.3,0.1,0.4,0.3l0.1,0.5c0.1-0.1,0.2-0.2,0.4-0.3c0.1-0.1,0.3-0.2,0.4-0.3
		c0.1-0.1,0.3-0.1,0.5-0.2c0.2,0,0.3-0.1,0.5-0.1c0.3,0,0.6,0.1,0.8,0.2c0.2,0.1,0.5,0.3,0.6,0.5c0.2,0.2,0.3,0.4,0.4,0.7
		c0.1,0.3,0.1,0.6,0.1,0.9v3.7H38v-3.7c0-0.4-0.1-0.6-0.2-0.8s-0.4-0.3-0.7-0.3c-0.2,0-0.5,0.1-0.7,0.2c-0.2,0.1-0.4,0.3-0.6,0.4
		v4.2H34.3z"/>
	<path class="st1" d="M43.2,96.2c0.4,0,0.7,0.1,1,0.2c0.3,0.1,0.6,0.3,0.8,0.5c0.2,0.2,0.4,0.5,0.5,0.8c0.1,0.3,0.2,0.7,0.2,1.1
		c0,0.1,0,0.2,0,0.3c0,0.1,0,0.1-0.1,0.2c0,0-0.1,0.1-0.1,0.1c0,0-0.1,0-0.2,0h-3.6c0,0.6,0.2,1,0.5,1.3s0.7,0.4,1.1,0.4
		c0.2,0,0.4,0,0.6-0.1c0.2-0.1,0.3-0.1,0.4-0.2c0.1-0.1,0.2-0.1,0.3-0.2s0.2-0.1,0.3-0.1c0.1,0,0.1,0,0.1,0c0,0,0.1,0.1,0.1,0.1
		l0.4,0.5c-0.2,0.2-0.3,0.3-0.5,0.5c-0.2,0.1-0.4,0.2-0.6,0.3c-0.2,0.1-0.4,0.1-0.6,0.2c-0.2,0-0.4,0-0.6,0c-0.4,0-0.8-0.1-1.1-0.2
		c-0.3-0.1-0.7-0.3-0.9-0.6c-0.3-0.3-0.5-0.6-0.6-1c-0.1-0.4-0.2-0.8-0.2-1.3c0-0.4,0.1-0.8,0.2-1.1c0.1-0.4,0.3-0.7,0.6-0.9
		c0.2-0.3,0.5-0.5,0.9-0.6C42.4,96.3,42.8,96.2,43.2,96.2z M43.2,97.2c-0.4,0-0.7,0.1-1,0.3c-0.2,0.2-0.4,0.6-0.4,1h2.6
		c0-0.2,0-0.4-0.1-0.5s-0.1-0.3-0.2-0.4c-0.1-0.1-0.2-0.2-0.4-0.3S43.4,97.2,43.2,97.2z"/>
	<path class="st1" d="M50.9,97.5c0,0.1-0.1,0.1-0.1,0.1s-0.1,0-0.2,0c-0.1,0-0.1,0-0.2-0.1c-0.1,0-0.1-0.1-0.2-0.1
		c-0.1-0.1-0.2-0.1-0.3-0.1c-0.1,0-0.3-0.1-0.5-0.1c-0.2,0-0.5,0-0.6,0.1s-0.3,0.2-0.5,0.4c-0.1,0.2-0.2,0.4-0.3,0.6
		c-0.1,0.2-0.1,0.5-0.1,0.8c0,0.3,0,0.6,0.1,0.8c0.1,0.2,0.2,0.4,0.3,0.6s0.3,0.3,0.5,0.4c0.2,0.1,0.4,0.1,0.6,0.1
		c0.2,0,0.4,0,0.5-0.1c0.1-0.1,0.3-0.1,0.3-0.2s0.2-0.1,0.2-0.2c0.1-0.1,0.1-0.1,0.2-0.1c0.1,0,0.2,0,0.3,0.1l0.4,0.5
		c-0.2,0.2-0.3,0.3-0.5,0.5c-0.2,0.1-0.4,0.2-0.6,0.3c-0.2,0.1-0.4,0.1-0.6,0.2c-0.2,0-0.4,0-0.6,0c-0.4,0-0.7-0.1-1-0.2
		c-0.3-0.1-0.6-0.3-0.8-0.6c-0.2-0.3-0.4-0.6-0.6-0.9c-0.1-0.4-0.2-0.8-0.2-1.3c0-0.4,0.1-0.8,0.2-1.2c0.1-0.4,0.3-0.7,0.5-0.9
		c0.2-0.3,0.5-0.5,0.9-0.6s0.8-0.2,1.2-0.2c0.4,0,0.8,0.1,1.1,0.2c0.3,0.1,0.6,0.3,0.9,0.6L50.9,97.5z"/>
	<path class="st1" d="M54.2,102.2c-0.5,0-0.9-0.1-1.2-0.4c-0.3-0.3-0.4-0.7-0.4-1.2v-3.3H52c-0.1,0-0.1,0-0.2-0.1
		c-0.1,0-0.1-0.1-0.1-0.2v-0.6l0.9-0.2l0.3-1.6c0-0.1,0.1-0.1,0.1-0.2c0.1,0,0.1-0.1,0.2-0.1H54v1.8h1.5v1H54v3.2
		c0,0.2,0,0.3,0.1,0.4c0.1,0.1,0.2,0.2,0.4,0.2c0.1,0,0.2,0,0.2,0c0.1,0,0.1,0,0.2-0.1c0,0,0.1,0,0.1-0.1c0,0,0.1,0,0.1,0
		c0,0,0.1,0,0.1,0c0,0,0.1,0.1,0.1,0.1l0.4,0.7c-0.2,0.2-0.4,0.3-0.7,0.4C54.7,102.2,54.5,102.2,54.2,102.2z"/>
	<path class="st1" d="M58.4,94.6c0,0.1,0,0.2-0.1,0.3c0,0.1-0.1,0.2-0.2,0.3c-0.1,0.1-0.2,0.1-0.3,0.2c-0.1,0-0.2,0.1-0.4,0.1
		c-0.1,0-0.2,0-0.3-0.1c-0.1,0-0.2-0.1-0.3-0.2c-0.1-0.1-0.1-0.2-0.2-0.3c0-0.1-0.1-0.2-0.1-0.3c0-0.1,0-0.2,0.1-0.4
		c0-0.1,0.1-0.2,0.2-0.3c0.1-0.1,0.2-0.1,0.3-0.2c0.1,0,0.2-0.1,0.3-0.1c0.1,0,0.2,0,0.4,0.1c0.1,0,0.2,0.1,0.3,0.2
		c0.1,0.1,0.1,0.2,0.2,0.3C58.3,94.3,58.4,94.5,58.4,94.6z M58.2,96.3v5.8h-1.4v-5.8H58.2z"/>
	<path class="st1" d="M59.7,102.1v-5.8h0.9c0.2,0,0.3,0.1,0.4,0.3l0.1,0.5c0.1-0.1,0.2-0.2,0.4-0.3c0.1-0.1,0.3-0.2,0.4-0.3
		c0.1-0.1,0.3-0.1,0.5-0.2c0.2,0,0.3-0.1,0.5-0.1c0.3,0,0.6,0.1,0.8,0.2c0.2,0.1,0.5,0.3,0.6,0.5c0.2,0.2,0.3,0.4,0.4,0.7
		c0.1,0.3,0.1,0.6,0.1,0.9v3.7h-1.4v-3.7c0-0.4-0.1-0.6-0.2-0.8s-0.4-0.3-0.7-0.3c-0.2,0-0.5,0.1-0.7,0.2c-0.2,0.1-0.4,0.3-0.6,0.4
		v4.2H59.7z"/>
	<path class="st1" d="M68.2,96.2c0.2,0,0.5,0,0.7,0.1c0.2,0.1,0.4,0.1,0.6,0.2h1.7V97c0,0.1,0,0.2-0.1,0.2c0,0-0.1,0.1-0.2,0.1
		l-0.5,0.1c0,0.1,0.1,0.2,0.1,0.3c0,0.1,0,0.2,0,0.3c0,0.3-0.1,0.5-0.2,0.8c-0.1,0.2-0.3,0.4-0.5,0.6s-0.4,0.3-0.7,0.4
		s-0.6,0.1-0.9,0.1c-0.2,0-0.4,0-0.6-0.1c-0.2,0.1-0.3,0.2-0.3,0.4c0,0.1,0.1,0.2,0.2,0.3s0.2,0.1,0.4,0.1c0.2,0,0.4,0,0.6,0
		c0.2,0,0.5,0,0.7,0c0.2,0,0.5,0.1,0.7,0.1c0.2,0,0.4,0.1,0.6,0.2c0.2,0.1,0.3,0.2,0.4,0.4s0.2,0.4,0.2,0.7c0,0.3-0.1,0.5-0.2,0.8
		s-0.3,0.5-0.6,0.6c-0.2,0.2-0.5,0.3-0.9,0.5s-0.7,0.2-1.2,0.2c-0.4,0-0.8,0-1.2-0.1s-0.6-0.2-0.8-0.3c-0.2-0.1-0.4-0.3-0.5-0.5
		s-0.2-0.4-0.2-0.6c0-0.3,0.1-0.5,0.2-0.7s0.4-0.3,0.7-0.4c-0.1-0.1-0.3-0.2-0.3-0.3c-0.1-0.1-0.1-0.3-0.1-0.5c0-0.1,0-0.2,0-0.3
		c0-0.1,0.1-0.2,0.1-0.3s0.1-0.2,0.2-0.3c0.1-0.1,0.2-0.2,0.3-0.2c-0.3-0.2-0.5-0.4-0.7-0.6c-0.2-0.3-0.3-0.6-0.3-0.9
		c0-0.3,0.1-0.5,0.2-0.8c0.1-0.2,0.3-0.4,0.5-0.6c0.2-0.2,0.5-0.3,0.7-0.4C67.6,96.2,67.9,96.2,68.2,96.2z M69.8,102.4
		c0-0.1,0-0.2-0.1-0.3c-0.1-0.1-0.2-0.1-0.3-0.2c-0.1,0-0.3-0.1-0.4-0.1c-0.2,0-0.3,0-0.5,0s-0.4,0-0.5,0s-0.4,0-0.5-0.1
		c-0.2,0.1-0.3,0.2-0.4,0.3c-0.1,0.1-0.1,0.3-0.1,0.4c0,0.1,0,0.2,0.1,0.3s0.1,0.2,0.2,0.2c0.1,0.1,0.3,0.1,0.4,0.2
		c0.2,0,0.4,0.1,0.7,0.1c0.3,0,0.5,0,0.7-0.1c0.2,0,0.3-0.1,0.5-0.2c0.1-0.1,0.2-0.2,0.3-0.3C69.7,102.6,69.8,102.5,69.8,102.4z
		 M68.2,99.1c0.2,0,0.3,0,0.5-0.1c0.1,0,0.2-0.1,0.3-0.2c0.1-0.1,0.1-0.2,0.2-0.3c0-0.1,0.1-0.2,0.1-0.4c0-0.3-0.1-0.5-0.3-0.7
		c-0.2-0.2-0.4-0.3-0.8-0.3s-0.6,0.1-0.8,0.3c-0.2,0.2-0.3,0.4-0.3,0.7c0,0.1,0,0.3,0.1,0.4s0.1,0.2,0.2,0.3
		c0.1,0.1,0.2,0.2,0.3,0.2C67.9,99,68,99.1,68.2,99.1z"/>
	<path class="st1" d="M73.5,93.9h1.2c0.1,0,0.2,0,0.3,0.1c0.1,0.1,0.1,0.1,0.2,0.2l1.9,5c0.1,0.2,0.1,0.3,0.2,0.5
		c0.1,0.2,0.1,0.4,0.2,0.6c0.1-0.4,0.2-0.8,0.3-1.2l1.9-5c0-0.1,0.1-0.2,0.2-0.2c0.1-0.1,0.2-0.1,0.3-0.1h1.2l-3.3,8.2h-1.4
		L73.5,93.9z"/>
	<path class="st1" d="M84.1,96.2c0.4,0,0.7,0.1,1,0.2c0.3,0.1,0.6,0.3,0.8,0.5c0.2,0.2,0.4,0.5,0.5,0.8c0.1,0.3,0.2,0.7,0.2,1.1
		c0,0.1,0,0.2,0,0.3c0,0.1,0,0.1-0.1,0.2c0,0-0.1,0.1-0.1,0.1c0,0-0.1,0-0.2,0h-3.6c0,0.6,0.2,1,0.5,1.3s0.7,0.4,1.1,0.4
		c0.2,0,0.4,0,0.6-0.1c0.2-0.1,0.3-0.1,0.4-0.2c0.1-0.1,0.2-0.1,0.3-0.2s0.2-0.1,0.3-0.1c0.1,0,0.1,0,0.1,0c0,0,0.1,0.1,0.1,0.1
		l0.4,0.5c-0.2,0.2-0.3,0.3-0.5,0.5c-0.2,0.1-0.4,0.2-0.6,0.3c-0.2,0.1-0.4,0.1-0.6,0.2c-0.2,0-0.4,0-0.6,0c-0.4,0-0.8-0.1-1.1-0.2
		c-0.3-0.1-0.7-0.3-0.9-0.6c-0.3-0.3-0.5-0.6-0.6-1c-0.1-0.4-0.2-0.8-0.2-1.3c0-0.4,0.1-0.8,0.2-1.1c0.1-0.4,0.3-0.7,0.6-0.9
		c0.2-0.3,0.5-0.5,0.9-0.6C83.2,96.3,83.6,96.2,84.1,96.2z M84.1,97.2c-0.4,0-0.7,0.1-1,0.3c-0.2,0.2-0.4,0.6-0.4,1h2.6
		c0-0.2,0-0.4-0.1-0.5s-0.1-0.3-0.2-0.4c-0.1-0.1-0.2-0.2-0.4-0.3S84.3,97.2,84.1,97.2z"/>
	<path class="st1" d="M89.6,102.2c-0.5,0-0.9-0.1-1.2-0.4c-0.3-0.3-0.4-0.7-0.4-1.2v-3.3h-0.6c-0.1,0-0.1,0-0.2-0.1
		c-0.1,0-0.1-0.1-0.1-0.2v-0.6l0.9-0.2l0.3-1.6c0-0.1,0.1-0.1,0.1-0.2c0.1,0,0.1-0.1,0.2-0.1h0.7v1.8H91v1h-1.5v3.2
		c0,0.2,0,0.3,0.1,0.4c0.1,0.1,0.2,0.2,0.4,0.2c0.1,0,0.2,0,0.2,0c0.1,0,0.1,0,0.2-0.1c0,0,0.1,0,0.1-0.1c0,0,0.1,0,0.1,0
		c0,0,0.1,0,0.1,0c0,0,0.1,0.1,0.1,0.1l0.4,0.7c-0.2,0.2-0.4,0.3-0.7,0.4C90.2,102.2,89.9,102.2,89.6,102.2z"/>
	<path class="st1" d="M94.5,96.2c0.4,0,0.7,0.1,1,0.2c0.3,0.1,0.6,0.3,0.8,0.5c0.2,0.2,0.4,0.5,0.5,0.8C97,98,97,98.4,97,98.8
		c0,0.1,0,0.2,0,0.3c0,0.1,0,0.1-0.1,0.2c0,0-0.1,0.1-0.1,0.1c0,0-0.1,0-0.2,0h-3.6c0,0.6,0.2,1,0.5,1.3s0.7,0.4,1.1,0.4
		c0.2,0,0.4,0,0.6-0.1c0.2-0.1,0.3-0.1,0.4-0.2c0.1-0.1,0.2-0.1,0.3-0.2s0.2-0.1,0.3-0.1c0.1,0,0.1,0,0.1,0c0,0,0.1,0.1,0.1,0.1
		l0.4,0.5c-0.2,0.2-0.3,0.3-0.5,0.5c-0.2,0.1-0.4,0.2-0.6,0.3c-0.2,0.1-0.4,0.1-0.6,0.2c-0.2,0-0.4,0-0.6,0c-0.4,0-0.8-0.1-1.1-0.2
		c-0.3-0.1-0.7-0.3-0.9-0.6c-0.3-0.3-0.5-0.6-0.6-1c-0.1-0.4-0.2-0.8-0.2-1.3c0-0.4,0.1-0.8,0.2-1.1c0.1-0.4,0.3-0.7,0.6-0.9
		c0.2-0.3,0.5-0.5,0.9-0.6C93.7,96.3,94.1,96.2,94.5,96.2z M94.6,97.2c-0.4,0-0.7,0.1-1,0.3c-0.2,0.2-0.4,0.6-0.4,1h2.6
		c0-0.2,0-0.4-0.1-0.5s-0.1-0.3-0.2-0.4c-0.1-0.1-0.2-0.2-0.4-0.3S94.8,97.2,94.6,97.2z"/>
	<path class="st1" d="M98.2,102.1v-5.8H99c0.1,0,0.2,0,0.3,0.1c0.1,0.1,0.1,0.1,0.1,0.3l0.1,0.7c0.2-0.4,0.5-0.6,0.7-0.9
		s0.6-0.3,0.9-0.3c0.3,0,0.5,0.1,0.7,0.2l-0.2,1.1c0,0.1,0,0.1-0.1,0.1s-0.1,0-0.2,0c-0.1,0-0.1,0-0.2,0s-0.2,0-0.4,0
		c-0.3,0-0.5,0.1-0.8,0.2c-0.2,0.2-0.4,0.4-0.5,0.7v3.6H98.2z"/>
	<path class="st1" d="M107.2,102.1h-0.6c-0.1,0-0.2,0-0.3-0.1c-0.1,0-0.1-0.1-0.2-0.2l-0.1-0.4c-0.1,0.1-0.3,0.2-0.4,0.3
		c-0.1,0.1-0.3,0.2-0.4,0.3c-0.2,0.1-0.3,0.1-0.5,0.2s-0.4,0.1-0.6,0.1c-0.2,0-0.5,0-0.7-0.1c-0.2-0.1-0.4-0.2-0.5-0.3
		c-0.1-0.1-0.3-0.3-0.3-0.5c-0.1-0.2-0.1-0.4-0.1-0.7c0-0.2,0.1-0.4,0.2-0.7c0.1-0.2,0.3-0.4,0.6-0.6s0.6-0.3,1.1-0.4
		c0.4-0.1,1-0.2,1.7-0.2v-0.3c0-0.4-0.1-0.7-0.2-0.9c-0.2-0.2-0.4-0.3-0.7-0.3c-0.2,0-0.4,0-0.6,0.1c-0.2,0.1-0.3,0.1-0.4,0.2
		s-0.2,0.1-0.3,0.2c-0.1,0.1-0.2,0.1-0.3,0.1c-0.1,0-0.2,0-0.2-0.1c-0.1,0-0.1-0.1-0.2-0.2l-0.3-0.4c0.7-0.6,1.5-0.9,2.4-0.9
		c0.3,0,0.6,0.1,0.9,0.2c0.3,0.1,0.5,0.3,0.7,0.5c0.2,0.2,0.3,0.4,0.4,0.7s0.1,0.6,0.1,0.9V102.1z M104.5,101.2c0.1,0,0.3,0,0.4,0
		c0.1,0,0.2-0.1,0.3-0.1c0.1-0.1,0.2-0.1,0.3-0.2c0.1-0.1,0.2-0.2,0.3-0.3v-1c-0.4,0-0.8,0-1,0.1c-0.3,0.1-0.5,0.1-0.7,0.2
		c-0.2,0.1-0.3,0.2-0.4,0.3c-0.1,0.1-0.1,0.2-0.1,0.3c0,0.2,0.1,0.4,0.2,0.5C104.1,101.2,104.3,101.2,104.5,101.2z"/>
	<path class="st1" d="M108.6,102.1v-5.8h0.9c0.2,0,0.3,0.1,0.4,0.3l0.1,0.5c0.1-0.1,0.2-0.2,0.4-0.3c0.1-0.1,0.3-0.2,0.4-0.3
		c0.1-0.1,0.3-0.1,0.5-0.2c0.2,0,0.3-0.1,0.5-0.1c0.3,0,0.6,0.1,0.8,0.2c0.2,0.1,0.5,0.3,0.6,0.5c0.2,0.2,0.3,0.4,0.4,0.7
		c0.1,0.3,0.1,0.6,0.1,0.9v3.7h-1.4v-3.7c0-0.4-0.1-0.6-0.2-0.8s-0.4-0.3-0.7-0.3c-0.2,0-0.5,0.1-0.7,0.2c-0.2,0.1-0.4,0.3-0.6,0.4
		v4.2H108.6z"/>
	<path class="st1" d="M118.5,97.4c0,0.1-0.1,0.1-0.1,0.1c0,0-0.1,0-0.2,0c-0.1,0-0.1,0-0.2-0.1c-0.1,0-0.2-0.1-0.3-0.1
		c-0.1,0-0.2-0.1-0.3-0.1s-0.3-0.1-0.5-0.1c-0.3,0-0.5,0.1-0.7,0.2s-0.2,0.3-0.2,0.5c0,0.1,0,0.2,0.1,0.3s0.2,0.2,0.3,0.2
		c0.1,0.1,0.3,0.1,0.5,0.2c0.2,0.1,0.3,0.1,0.5,0.2c0.2,0.1,0.4,0.1,0.5,0.2c0.2,0.1,0.3,0.2,0.5,0.3c0.1,0.1,0.2,0.3,0.3,0.4
		c0.1,0.2,0.1,0.4,0.1,0.6c0,0.3-0.1,0.5-0.2,0.8c-0.1,0.2-0.3,0.4-0.4,0.6c-0.2,0.2-0.4,0.3-0.7,0.4c-0.3,0.1-0.6,0.1-1,0.1
		c-0.2,0-0.4,0-0.6-0.1c-0.2,0-0.4-0.1-0.6-0.2c-0.2-0.1-0.3-0.1-0.5-0.2c-0.1-0.1-0.3-0.2-0.4-0.3l0.3-0.5c0-0.1,0.1-0.1,0.1-0.1
		c0.1,0,0.1-0.1,0.2-0.1c0.1,0,0.2,0,0.2,0.1c0.1,0,0.2,0.1,0.3,0.2c0.1,0.1,0.2,0.1,0.4,0.2c0.1,0,0.3,0.1,0.5,0.1
		c0.2,0,0.3,0,0.4-0.1c0.1,0,0.2-0.1,0.3-0.2s0.1-0.1,0.2-0.2c0-0.1,0.1-0.2,0.1-0.3c0-0.1,0-0.2-0.1-0.3s-0.2-0.2-0.3-0.2
		c-0.1-0.1-0.3-0.1-0.5-0.2s-0.3-0.1-0.5-0.2c-0.2-0.1-0.4-0.1-0.5-0.2c-0.2-0.1-0.3-0.2-0.5-0.3s-0.2-0.3-0.3-0.5s-0.1-0.4-0.1-0.7
		c0-0.2,0-0.5,0.1-0.7c0.1-0.2,0.2-0.4,0.4-0.6c0.2-0.2,0.4-0.3,0.7-0.4c0.3-0.1,0.6-0.1,1-0.1c0.4,0,0.8,0.1,1.1,0.2
		c0.3,0.1,0.6,0.3,0.8,0.5L118.5,97.4z"/>
	<path class="st1" d="M126.8,102.1h-0.6c-0.1,0-0.2,0-0.3-0.1c-0.1,0-0.1-0.1-0.2-0.2l-0.1-0.4c-0.1,0.1-0.3,0.2-0.4,0.3
		c-0.1,0.1-0.3,0.2-0.4,0.3c-0.2,0.1-0.3,0.1-0.5,0.2s-0.4,0.1-0.6,0.1c-0.2,0-0.5,0-0.7-0.1c-0.2-0.1-0.4-0.2-0.5-0.3
		c-0.1-0.1-0.3-0.3-0.3-0.5c-0.1-0.2-0.1-0.4-0.1-0.7c0-0.2,0.1-0.4,0.2-0.7c0.1-0.2,0.3-0.4,0.6-0.6s0.6-0.3,1.1-0.4
		c0.4-0.1,1-0.2,1.7-0.2v-0.3c0-0.4-0.1-0.7-0.2-0.9c-0.2-0.2-0.4-0.3-0.7-0.3c-0.2,0-0.4,0-0.6,0.1c-0.2,0.1-0.3,0.1-0.4,0.2
		s-0.2,0.1-0.3,0.2c-0.1,0.1-0.2,0.1-0.3,0.1c-0.1,0-0.2,0-0.2-0.1c-0.1,0-0.1-0.1-0.2-0.2l-0.3-0.4c0.7-0.6,1.5-0.9,2.4-0.9
		c0.3,0,0.6,0.1,0.9,0.2c0.3,0.1,0.5,0.3,0.7,0.5c0.2,0.2,0.3,0.4,0.4,0.7s0.1,0.6,0.1,0.9V102.1z M124.1,101.2c0.1,0,0.3,0,0.4,0
		c0.1,0,0.2-0.1,0.3-0.1c0.1-0.1,0.2-0.1,0.3-0.2c0.1-0.1,0.2-0.2,0.3-0.3v-1c-0.4,0-0.8,0-1,0.1c-0.3,0.1-0.5,0.1-0.7,0.2
		c-0.2,0.1-0.3,0.2-0.4,0.3c-0.1,0.1-0.1,0.2-0.1,0.3c0,0.2,0.1,0.4,0.2,0.5C123.6,101.2,123.8,101.2,124.1,101.2z"/>
	<path class="st1" d="M128.2,102.1v-5.8h0.9c0.2,0,0.3,0.1,0.4,0.3l0.1,0.5c0.1-0.1,0.2-0.2,0.4-0.3c0.1-0.1,0.3-0.2,0.4-0.3
		c0.1-0.1,0.3-0.1,0.5-0.2c0.2,0,0.3-0.1,0.5-0.1c0.3,0,0.6,0.1,0.8,0.2c0.2,0.1,0.5,0.3,0.6,0.5c0.2,0.2,0.3,0.4,0.4,0.7
		c0.1,0.3,0.1,0.6,0.1,0.9v3.7h-1.4v-3.7c0-0.4-0.1-0.6-0.2-0.8s-0.4-0.3-0.7-0.3c-0.2,0-0.5,0.1-0.7,0.2c-0.2,0.1-0.4,0.3-0.6,0.4
		v4.2H128.2z"/>
	<path class="st1" d="M138.7,102.1c-0.2,0-0.3-0.1-0.4-0.3l-0.1-0.6c-0.1,0.1-0.2,0.3-0.4,0.4c-0.1,0.1-0.3,0.2-0.4,0.3
		c-0.2,0.1-0.3,0.1-0.5,0.2c-0.2,0-0.4,0.1-0.6,0.1c-0.3,0-0.6-0.1-0.9-0.2c-0.3-0.1-0.5-0.3-0.7-0.6s-0.3-0.6-0.4-0.9
		c-0.1-0.4-0.2-0.8-0.2-1.3c0-0.4,0.1-0.8,0.2-1.2c0.1-0.4,0.3-0.7,0.5-1s0.5-0.5,0.8-0.6s0.7-0.2,1-0.2c0.3,0,0.6,0.1,0.8,0.2
		s0.4,0.2,0.6,0.4v-3.1h1.4v8.4H138.7z M136.9,101.1c0.3,0,0.5-0.1,0.7-0.2s0.4-0.3,0.6-0.5v-2.6c-0.2-0.2-0.3-0.3-0.5-0.4
		c-0.2-0.1-0.4-0.1-0.6-0.1c-0.2,0-0.4,0-0.6,0.1c-0.2,0.1-0.3,0.2-0.4,0.4c-0.1,0.2-0.2,0.4-0.3,0.6c-0.1,0.2-0.1,0.5-0.1,0.9
		c0,0.3,0,0.6,0.1,0.9c0.1,0.2,0.1,0.4,0.2,0.6s0.2,0.3,0.4,0.3C136.5,101.1,136.7,101.1,136.9,101.1z"/>
	<path class="st1" d="M149.2,93.9v1.3h-2.5v7h-1.5v-7h-2.5v-1.3H149.2z"/>
	<path class="st1" d="M150.1,102.1v-8.4h1.4v3.2c0.2-0.2,0.5-0.4,0.8-0.5c0.3-0.1,0.6-0.2,1-0.2c0.3,0,0.6,0.1,0.8,0.2
		c0.2,0.1,0.5,0.3,0.6,0.5c0.2,0.2,0.3,0.4,0.4,0.7c0.1,0.3,0.1,0.6,0.1,0.9v3.7h-1.4v-3.7c0-0.4-0.1-0.6-0.2-0.8s-0.4-0.3-0.7-0.3
		c-0.2,0-0.5,0.1-0.7,0.2c-0.2,0.1-0.4,0.3-0.6,0.4v4.2H150.1z"/>
	<path class="st1" d="M158.9,96.2c0.4,0,0.7,0.1,1,0.2c0.3,0.1,0.6,0.3,0.8,0.5c0.2,0.2,0.4,0.5,0.5,0.8c0.1,0.3,0.2,0.7,0.2,1.1
		c0,0.1,0,0.2,0,0.3c0,0.1,0,0.1-0.1,0.2c0,0-0.1,0.1-0.1,0.1c0,0-0.1,0-0.2,0h-3.6c0,0.6,0.2,1,0.5,1.3s0.7,0.4,1.1,0.4
		c0.2,0,0.4,0,0.6-0.1c0.2-0.1,0.3-0.1,0.4-0.2c0.1-0.1,0.2-0.1,0.3-0.2s0.2-0.1,0.3-0.1c0.1,0,0.1,0,0.1,0c0,0,0.1,0.1,0.1,0.1
		l0.4,0.5c-0.2,0.2-0.3,0.3-0.5,0.5c-0.2,0.1-0.4,0.2-0.6,0.3c-0.2,0.1-0.4,0.1-0.6,0.2c-0.2,0-0.4,0-0.6,0c-0.4,0-0.8-0.1-1.1-0.2
		c-0.3-0.1-0.7-0.3-0.9-0.6c-0.3-0.3-0.5-0.6-0.6-1c-0.1-0.4-0.2-0.8-0.2-1.3c0-0.4,0.1-0.8,0.2-1.1c0.1-0.4,0.3-0.7,0.6-0.9
		c0.2-0.3,0.5-0.5,0.9-0.6C158.1,96.3,158.5,96.2,158.9,96.2z M159,97.2c-0.4,0-0.7,0.1-1,0.3c-0.2,0.2-0.4,0.6-0.4,1h2.6
		c0-0.2,0-0.4-0.1-0.5s-0.1-0.3-0.2-0.4c-0.1-0.1-0.2-0.2-0.4-0.3S159.2,97.2,159,97.2z"/>
	<path class="st1" d="M164.3,94.6c0,0.1,0,0.2-0.1,0.3c0,0.1-0.1,0.2-0.2,0.3c-0.1,0.1-0.2,0.1-0.3,0.2c-0.1,0-0.2,0.1-0.4,0.1
		c-0.1,0-0.2,0-0.3-0.1c-0.1,0-0.2-0.1-0.3-0.2c-0.1-0.1-0.1-0.2-0.2-0.3c0-0.1-0.1-0.2-0.1-0.3c0-0.1,0-0.2,0.1-0.4
		c0-0.1,0.1-0.2,0.2-0.3c0.1-0.1,0.2-0.1,0.3-0.2c0.1,0,0.2-0.1,0.3-0.1c0.1,0,0.2,0,0.4,0.1c0.1,0,0.2,0.1,0.3,0.2
		c0.1,0.1,0.1,0.2,0.2,0.3C164.3,94.3,164.3,94.5,164.3,94.6z M164.1,96.3v5.8h-1.4v-5.8H164.1z"/>
	<path class="st1" d="M165.7,102.1v-5.8h0.8c0.1,0,0.2,0,0.3,0.1c0.1,0.1,0.1,0.1,0.1,0.3l0.1,0.7c0.2-0.4,0.5-0.6,0.7-0.9
		s0.6-0.3,0.9-0.3c0.3,0,0.5,0.1,0.7,0.2l-0.2,1.1c0,0.1,0,0.1-0.1,0.1s-0.1,0-0.2,0c-0.1,0-0.1,0-0.2,0s-0.2,0-0.4,0
		c-0.3,0-0.5,0.1-0.8,0.2c-0.2,0.2-0.4,0.4-0.5,0.7v3.6H165.7z"/>
	<path class="st1" d="M177.8,93.9v1.2h-3.6v2.4h3.1v1.2h-3.1v3.3h-1.5v-8.2H177.8z"/>
	<path class="st1" d="M183.5,102.1h-0.6c-0.1,0-0.2,0-0.3-0.1c-0.1,0-0.1-0.1-0.2-0.2l-0.1-0.4c-0.1,0.1-0.3,0.2-0.4,0.3
		c-0.1,0.1-0.3,0.2-0.4,0.3c-0.2,0.1-0.3,0.1-0.5,0.2s-0.4,0.1-0.6,0.1c-0.2,0-0.5,0-0.7-0.1c-0.2-0.1-0.4-0.2-0.5-0.3
		c-0.1-0.1-0.3-0.3-0.3-0.5c-0.1-0.2-0.1-0.4-0.1-0.7c0-0.2,0.1-0.4,0.2-0.7c0.1-0.2,0.3-0.4,0.6-0.6s0.6-0.3,1.1-0.4
		c0.4-0.1,1-0.2,1.7-0.2v-0.3c0-0.4-0.1-0.7-0.2-0.9c-0.2-0.2-0.4-0.3-0.7-0.3c-0.2,0-0.4,0-0.6,0.1c-0.2,0.1-0.3,0.1-0.4,0.2
		s-0.2,0.1-0.3,0.2c-0.1,0.1-0.2,0.1-0.3,0.1c-0.1,0-0.2,0-0.2-0.1c-0.1,0-0.1-0.1-0.2-0.2l-0.3-0.4c0.7-0.6,1.5-0.9,2.4-0.9
		c0.3,0,0.6,0.1,0.9,0.2c0.3,0.1,0.5,0.3,0.7,0.5c0.2,0.2,0.3,0.4,0.4,0.7s0.1,0.6,0.1,0.9V102.1z M180.7,101.2c0.1,0,0.3,0,0.4,0
		c0.1,0,0.2-0.1,0.3-0.1c0.1-0.1,0.2-0.1,0.3-0.2c0.1-0.1,0.2-0.2,0.3-0.3v-1c-0.4,0-0.8,0-1,0.1c-0.3,0.1-0.5,0.1-0.7,0.2
		c-0.2,0.1-0.3,0.2-0.4,0.3c-0.1,0.1-0.1,0.2-0.1,0.3c0,0.2,0.1,0.4,0.2,0.5C180.3,101.2,180.5,101.2,180.7,101.2z"/>
	<path class="st1" d="M184.8,102.1v-5.8h0.9c0.2,0,0.3,0.1,0.4,0.3l0.1,0.4c0.1-0.1,0.2-0.2,0.3-0.3c0.1-0.1,0.2-0.2,0.4-0.2
		c0.1-0.1,0.3-0.1,0.4-0.2c0.1,0,0.3-0.1,0.5-0.1c0.4,0,0.7,0.1,0.9,0.3c0.2,0.2,0.4,0.5,0.5,0.8c0.1-0.2,0.2-0.4,0.3-0.5
		c0.1-0.1,0.3-0.2,0.4-0.3c0.2-0.1,0.3-0.2,0.5-0.2c0.2,0,0.4-0.1,0.6-0.1c0.3,0,0.6,0,0.9,0.1s0.5,0.2,0.6,0.4
		c0.2,0.2,0.3,0.4,0.4,0.7c0.1,0.3,0.1,0.6,0.1,0.9v3.7h-1.4v-3.7c0-0.4-0.1-0.7-0.2-0.8c-0.2-0.2-0.4-0.3-0.7-0.3
		c-0.1,0-0.3,0-0.4,0.1s-0.2,0.1-0.3,0.2s-0.2,0.2-0.2,0.3c-0.1,0.1-0.1,0.3-0.1,0.5v3.7h-1.4v-3.7c0-0.4-0.1-0.7-0.2-0.9
		c-0.2-0.2-0.4-0.3-0.7-0.3c-0.2,0-0.4,0.1-0.6,0.2c-0.2,0.1-0.3,0.2-0.5,0.4v4.3H184.8z"/>
	<path class="st1" d="M196.1,94.6c0,0.1,0,0.2-0.1,0.3c0,0.1-0.1,0.2-0.2,0.3c-0.1,0.1-0.2,0.1-0.3,0.2c-0.1,0-0.2,0.1-0.4,0.1
		c-0.1,0-0.2,0-0.3-0.1c-0.1,0-0.2-0.1-0.3-0.2c-0.1-0.1-0.1-0.2-0.2-0.3c0-0.1-0.1-0.2-0.1-0.3c0-0.1,0-0.2,0.1-0.4
		c0-0.1,0.1-0.2,0.2-0.3c0.1-0.1,0.2-0.1,0.3-0.2c0.1,0,0.2-0.1,0.3-0.1c0.1,0,0.2,0,0.4,0.1c0.1,0,0.2,0.1,0.3,0.2
		c0.1,0.1,0.1,0.2,0.2,0.3C196.1,94.3,196.1,94.5,196.1,94.6z M195.9,96.3v5.8h-1.4v-5.8H195.9z"/>
	<path class="st1" d="M199,93.7v8.4h-1.4v-8.4H199z"/>
	<path class="st1" d="M202.3,94.6c0,0.1,0,0.2-0.1,0.3c0,0.1-0.1,0.2-0.2,0.3c-0.1,0.1-0.2,0.1-0.3,0.2c-0.1,0-0.2,0.1-0.4,0.1
		c-0.1,0-0.2,0-0.3-0.1c-0.1,0-0.2-0.1-0.3-0.2c-0.1-0.1-0.1-0.2-0.2-0.3c0-0.1-0.1-0.2-0.1-0.3c0-0.1,0-0.2,0.1-0.4
		c0-0.1,0.1-0.2,0.2-0.3c0.1-0.1,0.2-0.1,0.3-0.2c0.1,0,0.2-0.1,0.3-0.1c0.1,0,0.2,0,0.4,0.1c0.1,0,0.2,0.1,0.3,0.2
		c0.1,0.1,0.1,0.2,0.2,0.3C202.2,94.3,202.3,94.5,202.3,94.6z M202.1,96.3v5.8h-1.4v-5.8H202.1z"/>
	<path class="st1" d="M206,96.2c0.4,0,0.7,0.1,1,0.2s0.6,0.3,0.8,0.5c0.2,0.2,0.4,0.5,0.5,0.8c0.1,0.3,0.2,0.7,0.2,1.1
		c0,0.1,0,0.2,0,0.3c0,0.1,0,0.1-0.1,0.2c0,0-0.1,0.1-0.1,0.1c0,0-0.1,0-0.2,0h-3.6c0,0.6,0.2,1,0.5,1.3s0.7,0.4,1.1,0.4
		c0.2,0,0.4,0,0.6-0.1c0.2-0.1,0.3-0.1,0.4-0.2c0.1-0.1,0.2-0.1,0.3-0.2s0.2-0.1,0.3-0.1c0.1,0,0.1,0,0.1,0c0,0,0.1,0.1,0.1,0.1
		l0.4,0.5c-0.2,0.2-0.3,0.3-0.5,0.5c-0.2,0.1-0.4,0.2-0.6,0.3c-0.2,0.1-0.4,0.1-0.6,0.2s-0.4,0-0.6,0c-0.4,0-0.8-0.1-1.1-0.2
		c-0.3-0.1-0.7-0.3-0.9-0.6c-0.3-0.3-0.5-0.6-0.6-1c-0.1-0.4-0.2-0.8-0.2-1.3c0-0.4,0.1-0.8,0.2-1.1s0.3-0.7,0.6-0.9
		c0.2-0.3,0.5-0.5,0.9-0.6S205.6,96.2,206,96.2z M206.1,97.2c-0.4,0-0.7,0.1-1,0.3c-0.2,0.2-0.4,0.6-0.4,1h2.6c0-0.2,0-0.4-0.1-0.5
		c0-0.2-0.1-0.3-0.2-0.4c-0.1-0.1-0.2-0.2-0.4-0.3S206.3,97.2,206.1,97.2z"/>
	<path class="st1" d="M213.2,97.4c0,0.1-0.1,0.1-0.1,0.1c0,0-0.1,0-0.2,0c-0.1,0-0.1,0-0.2-0.1c-0.1,0-0.2-0.1-0.3-0.1
		c-0.1,0-0.2-0.1-0.3-0.1c-0.1,0-0.3-0.1-0.5-0.1c-0.3,0-0.5,0.1-0.7,0.2c-0.2,0.1-0.2,0.3-0.2,0.5c0,0.1,0,0.2,0.1,0.3
		s0.2,0.2,0.3,0.2c0.1,0.1,0.3,0.1,0.5,0.2c0.2,0.1,0.3,0.1,0.5,0.2s0.4,0.1,0.5,0.2c0.2,0.1,0.3,0.2,0.5,0.3
		c0.1,0.1,0.2,0.3,0.3,0.4c0.1,0.2,0.1,0.4,0.1,0.6c0,0.3-0.1,0.5-0.2,0.8c-0.1,0.2-0.3,0.4-0.4,0.6c-0.2,0.2-0.4,0.3-0.7,0.4
		s-0.6,0.1-1,0.1c-0.2,0-0.4,0-0.6-0.1s-0.4-0.1-0.6-0.2s-0.3-0.1-0.5-0.2c-0.2-0.1-0.3-0.2-0.4-0.3l0.3-0.5c0-0.1,0.1-0.1,0.1-0.1
		s0.1-0.1,0.2-0.1s0.2,0,0.2,0.1c0.1,0,0.2,0.1,0.3,0.2c0.1,0.1,0.2,0.1,0.4,0.2c0.1,0,0.3,0.1,0.5,0.1c0.2,0,0.3,0,0.4-0.1
		c0.1,0,0.2-0.1,0.3-0.2c0.1-0.1,0.1-0.1,0.2-0.2s0.1-0.2,0.1-0.3c0-0.1,0-0.2-0.1-0.3c-0.1-0.1-0.2-0.2-0.3-0.2
		c-0.1-0.1-0.3-0.1-0.5-0.2c-0.2-0.1-0.3-0.1-0.5-0.2c-0.2-0.1-0.4-0.1-0.5-0.2c-0.2-0.1-0.3-0.2-0.5-0.3c-0.1-0.1-0.2-0.3-0.3-0.5
		c-0.1-0.2-0.1-0.4-0.1-0.7c0-0.2,0-0.5,0.1-0.7s0.2-0.4,0.4-0.6c0.2-0.2,0.4-0.3,0.7-0.4c0.3-0.1,0.6-0.1,1-0.1
		c0.4,0,0.8,0.1,1.1,0.2c0.3,0.1,0.6,0.3,0.8,0.5L213.2,97.4z"/>
	<path class="st1" d="M216.2,93.9h1.3c0.1,0,0.2,0,0.3,0.1s0.1,0.1,0.2,0.3l1.4,4.9c0,0.1,0.1,0.3,0.1,0.4c0,0.1,0.1,0.3,0.1,0.5
		c0-0.2,0.1-0.3,0.1-0.5c0-0.1,0.1-0.3,0.1-0.4l1.6-4.9c0-0.1,0.1-0.2,0.2-0.2s0.2-0.1,0.3-0.1h0.4c0.1,0,0.2,0,0.3,0.1
		s0.1,0.1,0.2,0.3l1.6,4.9c0.1,0.2,0.2,0.5,0.2,0.8c0-0.1,0.1-0.3,0.1-0.4c0-0.1,0.1-0.3,0.1-0.4l1.4-4.9c0-0.1,0.1-0.2,0.2-0.2
		s0.2-0.1,0.3-0.1h1.2l-2.6,8.2H224l-1.8-5.6c0-0.1,0-0.2-0.1-0.2s0-0.2-0.1-0.3c0,0.1,0,0.2-0.1,0.3c0,0.1,0,0.2-0.1,0.2l-1.8,5.6
		h-1.4L216.2,93.9z"/>
	<path class="st1" d="M230.5,94.6c0,0.1,0,0.2-0.1,0.3c0,0.1-0.1,0.2-0.2,0.3c-0.1,0.1-0.2,0.1-0.3,0.2c-0.1,0-0.2,0.1-0.4,0.1
		c-0.1,0-0.2,0-0.3-0.1c-0.1,0-0.2-0.1-0.3-0.2c-0.1-0.1-0.1-0.2-0.2-0.3c0-0.1-0.1-0.2-0.1-0.3c0-0.1,0-0.2,0.1-0.4
		c0-0.1,0.1-0.2,0.2-0.3c0.1-0.1,0.2-0.1,0.3-0.2c0.1,0,0.2-0.1,0.3-0.1c0.1,0,0.2,0,0.4,0.1c0.1,0,0.2,0.1,0.3,0.2
		c0.1,0.1,0.1,0.2,0.2,0.3C230.4,94.3,230.5,94.5,230.5,94.6z M230.3,96.3v5.8h-1.4v-5.8H230.3z"/>
	<path class="st1" d="M233.8,102.2c-0.5,0-0.9-0.1-1.2-0.4s-0.4-0.7-0.4-1.2v-3.3h-0.6c-0.1,0-0.1,0-0.2-0.1c-0.1,0-0.1-0.1-0.1-0.2
		v-0.6l0.9-0.2l0.3-1.6c0-0.1,0.1-0.1,0.1-0.2s0.1-0.1,0.2-0.1h0.7v1.8h1.5v1h-1.5v3.2c0,0.2,0,0.3,0.1,0.4c0.1,0.1,0.2,0.2,0.4,0.2
		c0.1,0,0.2,0,0.2,0c0.1,0,0.1,0,0.2-0.1c0,0,0.1,0,0.1-0.1c0,0,0.1,0,0.1,0c0,0,0.1,0,0.1,0c0,0,0.1,0.1,0.1,0.1l0.4,0.7
		c-0.2,0.2-0.4,0.3-0.7,0.4C234.3,102.2,234,102.2,233.8,102.2z"/>
	<path class="st1" d="M236.2,102.1v-8.4h1.4v3.2c0.2-0.2,0.5-0.4,0.8-0.5c0.3-0.1,0.6-0.2,1-0.2c0.3,0,0.6,0.1,0.8,0.2
		c0.2,0.1,0.5,0.3,0.6,0.5c0.2,0.2,0.3,0.4,0.4,0.7c0.1,0.3,0.1,0.6,0.1,0.9v3.7h-1.4v-3.7c0-0.4-0.1-0.6-0.2-0.8
		c-0.2-0.2-0.4-0.3-0.7-0.3c-0.2,0-0.5,0.1-0.7,0.2c-0.2,0.1-0.4,0.3-0.6,0.4v4.2H236.2z"/>
	<path class="st1" d="M246.8,102.2c-0.5,0-0.9-0.1-1.2-0.4s-0.4-0.7-0.4-1.2v-3.3h-0.6c-0.1,0-0.1,0-0.2-0.1c-0.1,0-0.1-0.1-0.1-0.2
		v-0.6l0.9-0.2l0.3-1.6c0-0.1,0.1-0.1,0.1-0.2s0.1-0.1,0.2-0.1h0.7v1.8h1.5v1h-1.5v3.2c0,0.2,0,0.3,0.1,0.4c0.1,0.1,0.2,0.2,0.4,0.2
		c0.1,0,0.2,0,0.2,0c0.1,0,0.1,0,0.2-0.1c0,0,0.1,0,0.1-0.1c0,0,0.1,0,0.1,0c0,0,0.1,0,0.1,0c0,0,0.1,0.1,0.1,0.1l0.4,0.7
		c-0.2,0.2-0.4,0.3-0.7,0.4C247.4,102.2,247.1,102.2,246.8,102.2z"/>
	<path class="st1" d="M249.3,102.1v-8.4h1.4v3.2c0.2-0.2,0.5-0.4,0.8-0.5c0.3-0.1,0.6-0.2,1-0.2c0.3,0,0.6,0.1,0.8,0.2
		c0.2,0.1,0.5,0.3,0.6,0.5c0.2,0.2,0.3,0.4,0.4,0.7c0.1,0.3,0.1,0.6,0.1,0.9v3.7H253v-3.7c0-0.4-0.1-0.6-0.2-0.8
		c-0.2-0.2-0.4-0.3-0.7-0.3c-0.2,0-0.5,0.1-0.7,0.2c-0.2,0.1-0.4,0.3-0.6,0.4v4.2H249.3z"/>
	<path class="st1" d="M258.2,96.2c0.4,0,0.7,0.1,1,0.2s0.6,0.3,0.8,0.5c0.2,0.2,0.4,0.5,0.5,0.8c0.1,0.3,0.2,0.7,0.2,1.1
		c0,0.1,0,0.2,0,0.3c0,0.1,0,0.1-0.1,0.2c0,0-0.1,0.1-0.1,0.1c0,0-0.1,0-0.2,0h-3.6c0,0.6,0.2,1,0.5,1.3s0.7,0.4,1.1,0.4
		c0.2,0,0.4,0,0.6-0.1c0.2-0.1,0.3-0.1,0.4-0.2c0.1-0.1,0.2-0.1,0.3-0.2s0.2-0.1,0.3-0.1c0.1,0,0.1,0,0.1,0c0,0,0.1,0.1,0.1,0.1
		l0.4,0.5c-0.2,0.2-0.3,0.3-0.5,0.5c-0.2,0.1-0.4,0.2-0.6,0.3c-0.2,0.1-0.4,0.1-0.6,0.2s-0.4,0-0.6,0c-0.4,0-0.8-0.1-1.1-0.2
		c-0.3-0.1-0.7-0.3-0.9-0.6c-0.3-0.3-0.5-0.6-0.6-1c-0.1-0.4-0.2-0.8-0.2-1.3c0-0.4,0.1-0.8,0.2-1.1s0.3-0.7,0.6-0.9
		c0.2-0.3,0.5-0.5,0.9-0.6S257.7,96.2,258.2,96.2z M258.2,97.2c-0.4,0-0.7,0.1-1,0.3c-0.2,0.2-0.4,0.6-0.4,1h2.6
		c0-0.2,0-0.4-0.1-0.5c0-0.2-0.1-0.3-0.2-0.4c-0.1-0.1-0.2-0.2-0.4-0.3S258.4,97.2,258.2,97.2z"/>
	<path class="st1" d="M267.9,101c0.3,0,0.6,0,0.9-0.1s0.5-0.1,0.7-0.3v-1.5h-1c-0.1,0-0.2,0-0.2-0.1c-0.1-0.1-0.1-0.1-0.1-0.2V98
		h2.7v3.3c-0.2,0.2-0.4,0.3-0.7,0.4c-0.2,0.1-0.5,0.2-0.7,0.3s-0.5,0.1-0.8,0.2c-0.3,0-0.6,0.1-0.9,0.1c-0.6,0-1.1-0.1-1.7-0.3
		s-0.9-0.5-1.3-0.9s-0.7-0.8-0.9-1.3c-0.2-0.5-0.3-1.1-0.3-1.7c0-0.6,0.1-1.2,0.3-1.7c0.2-0.5,0.5-1,0.9-1.3
		c0.4-0.4,0.8-0.7,1.3-0.9c0.5-0.2,1.1-0.3,1.8-0.3c0.7,0,1.3,0.1,1.7,0.3c0.5,0.2,0.9,0.5,1.2,0.8l-0.4,0.7
		c-0.1,0.1-0.2,0.2-0.3,0.2c-0.1,0-0.2,0-0.3-0.1c-0.1-0.1-0.2-0.1-0.4-0.2c-0.1-0.1-0.3-0.1-0.4-0.2c-0.2-0.1-0.3-0.1-0.5-0.1
		c-0.2,0-0.4-0.1-0.7-0.1c-0.4,0-0.8,0.1-1.1,0.2c-0.3,0.1-0.6,0.3-0.8,0.6c-0.2,0.3-0.4,0.6-0.5,0.9c-0.1,0.4-0.2,0.8-0.2,1.2
		c0,0.5,0.1,0.9,0.2,1.3c0.1,0.4,0.3,0.7,0.6,0.9c0.2,0.3,0.5,0.4,0.9,0.6C267.1,100.9,267.5,101,267.9,101z"/>
	<path class="st1" d="M272.2,102.1v-5.8h0.8c0.1,0,0.2,0,0.3,0.1s0.1,0.1,0.1,0.3l0.1,0.7c0.2-0.4,0.5-0.6,0.7-0.9s0.6-0.3,0.9-0.3
		c0.3,0,0.5,0.1,0.7,0.2l-0.2,1.1c0,0.1,0,0.1-0.1,0.1c0,0-0.1,0-0.2,0c-0.1,0-0.1,0-0.2,0s-0.2,0-0.4,0c-0.3,0-0.5,0.1-0.8,0.2
		c-0.2,0.2-0.4,0.4-0.5,0.7v3.6H272.2z"/>
	<path class="st1" d="M279.3,96.2c0.4,0,0.7,0.1,1,0.2s0.6,0.3,0.8,0.5c0.2,0.2,0.4,0.5,0.5,0.8c0.1,0.3,0.2,0.7,0.2,1.1
		c0,0.1,0,0.2,0,0.3c0,0.1,0,0.1-0.1,0.2c0,0-0.1,0.1-0.1,0.1c0,0-0.1,0-0.2,0h-3.6c0,0.6,0.2,1,0.5,1.3s0.7,0.4,1.1,0.4
		c0.2,0,0.4,0,0.6-0.1c0.2-0.1,0.3-0.1,0.4-0.2c0.1-0.1,0.2-0.1,0.3-0.2s0.2-0.1,0.3-0.1c0.1,0,0.1,0,0.1,0c0,0,0.1,0.1,0.1,0.1
		l0.4,0.5c-0.2,0.2-0.3,0.3-0.5,0.5c-0.2,0.1-0.4,0.2-0.6,0.3c-0.2,0.1-0.4,0.1-0.6,0.2s-0.4,0-0.6,0c-0.4,0-0.8-0.1-1.1-0.2
		c-0.3-0.1-0.7-0.3-0.9-0.6c-0.3-0.3-0.5-0.6-0.6-1c-0.1-0.4-0.2-0.8-0.2-1.3c0-0.4,0.1-0.8,0.2-1.1s0.3-0.7,0.6-0.9
		c0.2-0.3,0.5-0.5,0.9-0.6S278.8,96.2,279.3,96.2z M279.3,97.2c-0.4,0-0.7,0.1-1,0.3c-0.2,0.2-0.4,0.6-0.4,1h2.6
		c0-0.2,0-0.4-0.1-0.5c0-0.2-0.1-0.3-0.2-0.4c-0.1-0.1-0.2-0.2-0.4-0.3S279.5,97.2,279.3,97.2z"/>
	<path class="st1" d="M287.5,102.1h-0.6c-0.1,0-0.2,0-0.3-0.1c-0.1,0-0.1-0.1-0.2-0.2l-0.1-0.4c-0.1,0.1-0.3,0.2-0.4,0.3
		c-0.1,0.1-0.3,0.2-0.4,0.3c-0.2,0.1-0.3,0.1-0.5,0.2c-0.2,0-0.4,0.1-0.6,0.1c-0.2,0-0.5,0-0.7-0.1c-0.2-0.1-0.4-0.2-0.5-0.3
		c-0.1-0.1-0.3-0.3-0.3-0.5c-0.1-0.2-0.1-0.4-0.1-0.7c0-0.2,0.1-0.4,0.2-0.7c0.1-0.2,0.3-0.4,0.6-0.6s0.6-0.3,1.1-0.4
		c0.4-0.1,1-0.2,1.7-0.2v-0.3c0-0.4-0.1-0.7-0.2-0.9c-0.2-0.2-0.4-0.3-0.7-0.3c-0.2,0-0.4,0-0.6,0.1s-0.3,0.1-0.4,0.2
		s-0.2,0.1-0.3,0.2c-0.1,0.1-0.2,0.1-0.3,0.1c-0.1,0-0.2,0-0.2-0.1c-0.1,0-0.1-0.1-0.2-0.2l-0.3-0.4c0.7-0.6,1.5-0.9,2.4-0.9
		c0.3,0,0.6,0.1,0.9,0.2c0.3,0.1,0.5,0.3,0.7,0.5c0.2,0.2,0.3,0.4,0.4,0.7c0.1,0.3,0.1,0.6,0.1,0.9V102.1z M284.8,101.2
		c0.1,0,0.3,0,0.4,0s0.2-0.1,0.3-0.1c0.1-0.1,0.2-0.1,0.3-0.2c0.1-0.1,0.2-0.2,0.3-0.3v-1c-0.4,0-0.8,0-1,0.1
		c-0.3,0.1-0.5,0.1-0.7,0.2c-0.2,0.1-0.3,0.2-0.4,0.3c-0.1,0.1-0.1,0.2-0.1,0.3c0,0.2,0.1,0.4,0.2,0.5
		C284.4,101.2,284.5,101.2,284.8,101.2z"/>
	<path class="st1" d="M290.8,102.2c-0.5,0-0.9-0.1-1.2-0.4s-0.4-0.7-0.4-1.2v-3.3h-0.6c-0.1,0-0.1,0-0.2-0.1c-0.1,0-0.1-0.1-0.1-0.2
		v-0.6l0.9-0.2l0.3-1.6c0-0.1,0.1-0.1,0.1-0.2s0.1-0.1,0.2-0.1h0.7v1.8h1.5v1h-1.5v3.2c0,0.2,0,0.3,0.1,0.4c0.1,0.1,0.2,0.2,0.4,0.2
		c0.1,0,0.2,0,0.2,0c0.1,0,0.1,0,0.2-0.1c0,0,0.1,0,0.1-0.1c0,0,0.1,0,0.1,0c0,0,0.1,0,0.1,0c0,0,0.1,0.1,0.1,0.1l0.4,0.7
		c-0.2,0.2-0.4,0.3-0.7,0.4C291.4,102.2,291.1,102.2,290.8,102.2z"/>
	<path class="st1" d="M295.7,96.2c0.4,0,0.7,0.1,1,0.2s0.6,0.3,0.8,0.5c0.2,0.2,0.4,0.5,0.5,0.8c0.1,0.3,0.2,0.7,0.2,1.1
		c0,0.1,0,0.2,0,0.3c0,0.1,0,0.1-0.1,0.2c0,0-0.1,0.1-0.1,0.1c0,0-0.1,0-0.2,0h-3.6c0,0.6,0.2,1,0.5,1.3s0.7,0.4,1.1,0.4
		c0.2,0,0.4,0,0.6-0.1c0.2-0.1,0.3-0.1,0.4-0.2c0.1-0.1,0.2-0.1,0.3-0.2s0.2-0.1,0.3-0.1c0.1,0,0.1,0,0.1,0c0,0,0.1,0.1,0.1,0.1
		l0.4,0.5c-0.2,0.2-0.3,0.3-0.5,0.5c-0.2,0.1-0.4,0.2-0.6,0.3c-0.2,0.1-0.4,0.1-0.6,0.2s-0.4,0-0.6,0c-0.4,0-0.8-0.1-1.1-0.2
		c-0.3-0.1-0.7-0.3-0.9-0.6c-0.3-0.3-0.5-0.6-0.6-1c-0.1-0.4-0.2-0.8-0.2-1.3c0-0.4,0.1-0.8,0.2-1.1s0.3-0.7,0.6-0.9
		c0.2-0.3,0.5-0.5,0.9-0.6S295.3,96.2,295.7,96.2z M295.7,97.2c-0.4,0-0.7,0.1-1,0.3c-0.2,0.2-0.4,0.6-0.4,1h2.6
		c0-0.2,0-0.4-0.1-0.5c0-0.2-0.1-0.3-0.2-0.4c-0.1-0.1-0.2-0.2-0.4-0.3S295.9,97.2,295.7,97.2z"/>
	<path class="st1" d="M299.4,102.1v-5.8h0.8c0.1,0,0.2,0,0.3,0.1s0.1,0.1,0.1,0.3l0.1,0.7c0.2-0.4,0.5-0.6,0.7-0.9s0.6-0.3,0.9-0.3
		c0.3,0,0.5,0.1,0.7,0.2l-0.2,1.1c0,0.1,0,0.1-0.1,0.1c0,0-0.1,0-0.2,0c-0.1,0-0.1,0-0.2,0s-0.2,0-0.4,0c-0.3,0-0.5,0.1-0.8,0.2
		c-0.2,0.2-0.4,0.4-0.5,0.7v3.6H299.4z"/>
	<path class="st1" d="M311.9,100.2c0.1,0,0.2,0,0.2,0.1l0.6,0.7c-0.3,0.4-0.7,0.7-1.2,0.9c-0.5,0.2-1.1,0.3-1.8,0.3
		c-0.6,0-1.2-0.1-1.6-0.3s-0.9-0.5-1.2-0.9s-0.6-0.8-0.8-1.3s-0.3-1.1-0.3-1.7c0-0.6,0.1-1.2,0.3-1.7c0.2-0.5,0.5-1,0.9-1.3
		c0.4-0.4,0.8-0.7,1.3-0.9c0.5-0.2,1.1-0.3,1.7-0.3c0.6,0,1.1,0.1,1.6,0.3c0.5,0.2,0.8,0.5,1.2,0.8l-0.5,0.7c0,0-0.1,0.1-0.1,0.1
		c0,0-0.1,0.1-0.2,0.1c-0.1,0-0.2,0-0.3-0.1s-0.2-0.1-0.3-0.2s-0.3-0.2-0.5-0.2s-0.5-0.1-0.8-0.1c-0.4,0-0.7,0.1-1.1,0.2
		c-0.3,0.1-0.6,0.3-0.8,0.6c-0.2,0.2-0.4,0.6-0.5,0.9c-0.1,0.4-0.2,0.8-0.2,1.2c0,0.5,0.1,0.9,0.2,1.2c0.1,0.4,0.3,0.7,0.5,0.9
		s0.5,0.4,0.8,0.6c0.3,0.1,0.6,0.2,1,0.2c0.2,0,0.4,0,0.6,0c0.2,0,0.3-0.1,0.5-0.1c0.1,0,0.3-0.1,0.4-0.2c0.1-0.1,0.3-0.2,0.4-0.3
		c0,0,0.1-0.1,0.1-0.1C311.8,100.2,311.9,100.2,311.9,100.2z"/>
	<path class="st1" d="M316.3,96.2c0.4,0,0.8,0.1,1.2,0.2c0.4,0.1,0.7,0.3,0.9,0.6c0.2,0.3,0.4,0.6,0.6,0.9c0.1,0.4,0.2,0.8,0.2,1.2
		c0,0.5-0.1,0.9-0.2,1.2c-0.1,0.4-0.3,0.7-0.6,0.9c-0.2,0.3-0.6,0.5-0.9,0.6c-0.4,0.1-0.7,0.2-1.2,0.2s-0.8-0.1-1.2-0.2
		c-0.4-0.1-0.7-0.3-0.9-0.6c-0.3-0.3-0.4-0.6-0.6-0.9c-0.1-0.4-0.2-0.8-0.2-1.2c0-0.5,0.1-0.9,0.2-1.2c0.1-0.4,0.3-0.7,0.6-0.9
		c0.3-0.3,0.6-0.5,0.9-0.6C315.5,96.3,315.9,96.2,316.3,96.2z M316.3,101.1c0.5,0,0.8-0.2,1.1-0.5c0.2-0.3,0.3-0.8,0.3-1.4
		s-0.1-1.1-0.3-1.4c-0.2-0.3-0.6-0.5-1.1-0.5c-0.5,0-0.9,0.2-1.1,0.5c-0.2,0.3-0.4,0.8-0.4,1.4s0.1,1.1,0.4,1.4
		C315.4,101,315.8,101.1,316.3,101.1z"/>
	<path class="st1" d="M320.3,102.1v-5.8h0.9c0.2,0,0.3,0.1,0.4,0.3l0.1,0.4c0.1-0.1,0.2-0.2,0.3-0.3c0.1-0.1,0.2-0.2,0.4-0.2
		c0.1-0.1,0.3-0.1,0.4-0.2c0.1,0,0.3-0.1,0.5-0.1c0.4,0,0.7,0.1,0.9,0.3c0.2,0.2,0.4,0.5,0.5,0.8c0.1-0.2,0.2-0.4,0.3-0.5
		c0.1-0.1,0.3-0.2,0.4-0.3c0.2-0.1,0.3-0.2,0.5-0.2c0.2,0,0.4-0.1,0.6-0.1c0.3,0,0.6,0,0.9,0.1s0.5,0.2,0.6,0.4
		c0.2,0.2,0.3,0.4,0.4,0.7c0.1,0.3,0.1,0.6,0.1,0.9v3.7H327v-3.7c0-0.4-0.1-0.7-0.2-0.8c-0.2-0.2-0.4-0.3-0.7-0.3
		c-0.1,0-0.3,0-0.4,0.1s-0.2,0.1-0.3,0.2s-0.2,0.2-0.2,0.3c-0.1,0.1-0.1,0.3-0.1,0.5v3.7h-1.4v-3.7c0-0.4-0.1-0.7-0.2-0.9
		s-0.4-0.3-0.7-0.3c-0.2,0-0.4,0.1-0.6,0.2c-0.2,0.1-0.3,0.2-0.5,0.4v4.3H320.3z"/>
	<path class="st1" d="M329.8,102.1v-5.8h0.9c0.2,0,0.3,0.1,0.4,0.3l0.1,0.4c0.1-0.1,0.2-0.2,0.3-0.3c0.1-0.1,0.2-0.2,0.4-0.2
		c0.1-0.1,0.3-0.1,0.4-0.2c0.1,0,0.3-0.1,0.5-0.1c0.4,0,0.7,0.1,0.9,0.3c0.2,0.2,0.4,0.5,0.5,0.8c0.1-0.2,0.2-0.4,0.3-0.5
		c0.1-0.1,0.3-0.2,0.4-0.3c0.2-0.1,0.3-0.2,0.5-0.2c0.2,0,0.4-0.1,0.6-0.1c0.3,0,0.6,0,0.9,0.1s0.5,0.2,0.6,0.4
		c0.2,0.2,0.3,0.4,0.4,0.7c0.1,0.3,0.1,0.6,0.1,0.9v3.7h-1.4v-3.7c0-0.4-0.1-0.7-0.2-0.8c-0.2-0.2-0.4-0.3-0.7-0.3
		c-0.1,0-0.3,0-0.4,0.1s-0.2,0.1-0.3,0.2s-0.2,0.2-0.2,0.3c-0.1,0.1-0.1,0.3-0.1,0.5v3.7h-1.4v-3.7c0-0.4-0.1-0.7-0.2-0.9
		s-0.4-0.3-0.7-0.3c-0.2,0-0.4,0.1-0.6,0.2c-0.2,0.1-0.3,0.2-0.5,0.4v4.3H329.8z"/>
	<path class="st1" d="M340.7,96.3v3.7c0,0.4,0.1,0.6,0.2,0.8c0.2,0.2,0.4,0.3,0.7,0.3c0.2,0,0.5-0.1,0.7-0.2
		c0.2-0.1,0.4-0.3,0.6-0.4v-4.2h1.4v5.8h-0.9c-0.2,0-0.3-0.1-0.4-0.3l-0.1-0.5c-0.1,0.1-0.2,0.2-0.4,0.3c-0.1,0.1-0.3,0.2-0.4,0.3
		c-0.1,0.1-0.3,0.1-0.5,0.2s-0.3,0.1-0.5,0.1c-0.3,0-0.6-0.1-0.8-0.2c-0.2-0.1-0.5-0.3-0.6-0.5c-0.2-0.2-0.3-0.4-0.4-0.7
		c-0.1-0.3-0.1-0.6-0.1-0.9v-3.7H340.7z"/>
	<path class="st1" d="M345.9,102.1v-5.8h0.9c0.2,0,0.3,0.1,0.4,0.3l0.1,0.5c0.1-0.1,0.2-0.2,0.4-0.3c0.1-0.1,0.3-0.2,0.4-0.3
		c0.1-0.1,0.3-0.1,0.5-0.2c0.2,0,0.3-0.1,0.5-0.1c0.3,0,0.6,0.1,0.8,0.2c0.2,0.1,0.5,0.3,0.6,0.5c0.2,0.2,0.3,0.4,0.4,0.7
		c0.1,0.3,0.1,0.6,0.1,0.9v3.7h-1.4v-3.7c0-0.4-0.1-0.6-0.2-0.8c-0.2-0.2-0.4-0.3-0.7-0.3c-0.2,0-0.5,0.1-0.7,0.2
		c-0.2,0.1-0.4,0.3-0.6,0.4v4.2H345.9z"/>
	<path class="st1" d="M354,94.6c0,0.1,0,0.2-0.1,0.3c0,0.1-0.1,0.2-0.2,0.3c-0.1,0.1-0.2,0.1-0.3,0.2c-0.1,0-0.2,0.1-0.4,0.1
		c-0.1,0-0.2,0-0.3-0.1c-0.1,0-0.2-0.1-0.3-0.2c-0.1-0.1-0.1-0.2-0.2-0.3c0-0.1-0.1-0.2-0.1-0.3c0-0.1,0-0.2,0.1-0.4
		c0-0.1,0.1-0.2,0.2-0.3c0.1-0.1,0.2-0.1,0.3-0.2c0.1,0,0.2-0.1,0.3-0.1c0.1,0,0.2,0,0.4,0.1c0.1,0,0.2,0.1,0.3,0.2
		c0.1,0.1,0.1,0.2,0.2,0.3C354,94.3,354,94.5,354,94.6z M353.8,96.3v5.8h-1.4v-5.8H353.8z"/>
	<path class="st1" d="M357.3,102.2c-0.5,0-0.9-0.1-1.2-0.4s-0.4-0.7-0.4-1.2v-3.3h-0.6c-0.1,0-0.1,0-0.2-0.1c-0.1,0-0.1-0.1-0.1-0.2
		v-0.6l0.9-0.2l0.3-1.6c0-0.1,0.1-0.1,0.1-0.2s0.1-0.1,0.2-0.1h0.7v1.8h1.5v1h-1.5v3.2c0,0.2,0,0.3,0.1,0.4c0.1,0.1,0.2,0.2,0.4,0.2
		c0.1,0,0.2,0,0.2,0c0.1,0,0.1,0,0.2-0.1c0,0,0.1,0,0.1-0.1c0,0,0.1,0,0.1,0c0,0,0.1,0,0.1,0c0,0,0.1,0.1,0.1,0.1l0.4,0.7
		c-0.2,0.2-0.4,0.3-0.7,0.4C357.9,102.2,357.6,102.2,357.3,102.2z"/>
	<path class="st1" d="M361.9,103.7c0,0.1-0.1,0.2-0.2,0.2c-0.1,0.1-0.2,0.1-0.3,0.1h-1l1.1-2.3l-2.4-5.4h1.2c0.1,0,0.2,0,0.3,0.1
		s0.1,0.1,0.1,0.2l1.2,3c0,0.1,0.1,0.2,0.1,0.3c0,0.1,0.1,0.2,0.1,0.3c0-0.1,0.1-0.2,0.1-0.3s0.1-0.2,0.1-0.3l1.2-3
		c0-0.1,0.1-0.1,0.2-0.2c0.1,0,0.1-0.1,0.2-0.1h1.1L361.9,103.7z"/>
</g>
<text transform="matrix(1 0 0 1 13.0317 161.1733)" class="st1" style="font-family:'Lato-Bold'; font-size:11.3617px;">Connecting Veterans and Their Families With the Greater Community</text>
</svg>
